  0
SECTION
  2
HEADER
  9
$ACADVER
  1
AC1014
  9
$HANDSEED
  5
FFFF
  9
$MEASUREMENT
 70
     1
  0
ENDSEC
  0
SECTION
  2
TABLES
  0
TABLE
  2
VPORT
  5
8
330
0
100
AcDbSymbolTable
 70
     4
  0
VPORT
  5
2E
330
8
100
AcDbSymbolTableRecord
100
AcDbViewportTableRecord
  2
*ACTIVE
 70
     0
 10
0.0
 20
0.0
 11
1.0
 21
1.0
 12
210.0
 22
148.5
 13
0.0
 23
0.0
 14
10.0
 24
10.0
 15
10.0
 25
10.0
 16
0.0
 26
0.0
 36
1.0
 17
0.0
 27
0.0
 37
0.0
 40
341.0
 41
1.24
 42
50.0
 43
0.0
 44
0.0
 50
0.0
 51
0.0
 71
     0
 72
   100
 73
     1
 74
     3
 75
     0
 76
     0
 77
     0
 78
     0
  0
ENDTAB
  0
TABLE
  2
LTYPE
  5
5
330
0
100
AcDbSymbolTable
 70
     1
  0
LTYPE
  5
14
330
5
100
AcDbSymbolTableRecord
100
AcDbLinetypeTableRecord
  2
BYBLOCK
 70
     0
  3

 72
    65
 73
     0
 40
0.0
  0
LTYPE
  5
15
330
5
100
AcDbSymbolTableRecord
100
AcDbLinetypeTableRecord
  2
BYLAYER
 70
     0
  3

 72
    65
 73
     0
 40
0.0
  0
LTYPE
  5
16
330
5
100
AcDbSymbolTableRecord
100
AcDbLinetypeTableRecord
  2
CONTINUOUS
 70
     0
  3
Solid line
 72
    65
 73
     0
 40
0.0
  0
ENDTAB
  0
TABLE
  2
LAYER
  5
2
100
AcDbSymbolTable
 70
2
  0
LAYER
  5
50
100
AcDbSymbolTableRecord
100
AcDbLayerTableRecord
  2
0
 70
0
  6
CONTINUOUS
  0
LAYER
  5
51
100
AcDbSymbolTableRecord
100
AcDbLayerTableRecord
  2
Layer_1
 70
0
  6
CONTINUOUS
  0
ENDTAB
  0
TABLE
  2
STYLE
  5
3
330
0
100
AcDbSymbolTable
 70
     1
  0
STYLE
  5
11
330
3
100
AcDbSymbolTableRecord
100
AcDbTextStyleTableRecord
  2
STANDARD
 70
     0
 40
0.0
 41
1.0
 50
0.0
 71
     0
 42
2.5
  3
txt
  4

  0
ENDTAB
  0
TABLE
  2
VIEW
  5
6
330
0
100
AcDbSymbolTable
 70
     0
  0
ENDTAB
  0
TABLE
  2
UCS
  5
7
330
0
100
AcDbSymbolTable
 70
     0
  0
ENDTAB
  0
TABLE
  2
APPID
  5
9
330
0
100
AcDbSymbolTable
 70
     2
  0
APPID
  5
12
330
9
100
AcDbSymbolTableRecord
100
AcDbRegAppTableRecord
  2
ACAD
 70
     0
  0
ENDTAB
  0
TABLE
  2
DIMSTYLE
  5
A
330
0
100
AcDbSymbolTable
 70
     1
  0
DIMSTYLE
105
27
330
A
100
AcDbSymbolTableRecord
100
AcDbDimStyleTableRecord
  2
ISO-25
 70
     0
  3

  4

  5

  6

  7

 40
1.0
 41
2.5
 42
0.625
 43
3.75
 44
1.25
 45
0.0
 46
0.0
 47
0.0
 48
0.0
140
2.5
141
2.5
142
0.0
143
0.03937007874016
144
1.0
145
0.0
146
1.0
147
0.625
 71
     0
 72
     0
 73
     0
 74
     0
 75
     0
 76
     0
 77
     1
 78
     8
170
     0
171
     3
172
     1
173
     0
174
     0
175
     0
176
     0
177
     0
178
     0
270
     2
271
     2
272
     2
273
     2
274
     3
340
11
275
     0
280
     0
281
     0
282
     0
283
     0
284
     8
285
     0
286
     0
287
     3
288
     0
  0
ENDTAB
  0
TABLE
  2
BLOCK_RECORD
  5
1
330
0
100
AcDbSymbolTable
 70
     1
  0
BLOCK_RECORD
  5
1F
330
1
100
AcDbSymbolTableRecord
100
AcDbBlockTableRecord
  2
*MODEL_SPACE
  0
BLOCK_RECORD
  5
1B
330
1
100
AcDbSymbolTableRecord
100
AcDbBlockTableRecord
  2
*PAPER_SPACE
  0
ENDTAB
  0
ENDSEC
  0
SECTION
  2
BLOCKS
  0
BLOCK
  5
20
330
1F
100
AcDbEntity
  8
0
100
AcDbBlockBegin
  2
*MODEL_SPACE
 70
     0
 10
0.0
 20
0.0
 30
0.0
  3
*MODEL_SPACE
  1

  0
ENDBLK
  5
21
330
1F
100
AcDbEntity
  8
0
100
AcDbBlockEnd
  0
BLOCK
  5
1C
330
1B
100
AcDbEntity
 67
     1
  8
0
100
AcDbBlockBegin
  2
*PAPER_SPACE
  1

  0
ENDBLK
  5
1D
330
1B
100
AcDbEntity
 67
     1
  8
0
100
AcDbBlockEnd
  0
ENDSEC
  0
SECTION
  2
ENTITIES
  0
LWPOLYLINE
  5
100
100
AcDbEntity
  8
Layer_1
 62
7
100
AcDbPolyline
 90
10
 70
0
 10
63.614097
 20
45.363498
 30
0.0
 10
58.119030
 20
31.794231
 30
0.0
 10
60.211445
 20
31.794231
 30
0.0
 10
61.838631
 20
35.870468
 30
0.0
 10
67.777425
 20
35.870468
 30
0.0
 10
69.362168
 20
31.794231
 30
0.0
 10
71.559863
 20
31.794231
 30
0.0
 10
66.149686
 20
45.363498
 30
0.0
 10
63.614097
 20
45.363498
 30
0.0
 10
63.614097
 20
45.363498
 30
0.0
  0
LWPOLYLINE
  5
101
100
AcDbEntity
  8
Layer_1
 62
7
100
AcDbPolyline
 90
8
 70
0
 10
72.497482
 20
45.363498
 30
0.0
 10
72.497482
 20
31.794231
 30
0.0
 10
82.070987
 20
31.794231
 30
0.0
 10
82.070987
 20
33.320546
 30
0.0
 10
74.463114
 20
33.320546
 30
0.0
 10
74.463114
 20
45.363498
 30
0.0
 10
72.497482
 20
45.363498
 30
0.0
 10
72.497482
 20
45.363498
 30
0.0
  0
LWPOLYLINE
  5
102
100
AcDbEntity
  8
Layer_1
 62
7
100
AcDbPolyline
 90
14
 70
0
 10
83.118297
 20
45.363498
 30
0.0
 10
83.118297
 20
31.794231
 30
0.0
 10
94.170714
 20
31.794231
 30
0.0
 10
94.170714
 20
33.320546
 30
0.0
 10
85.083379
 20
33.320546
 30
0.0
 10
85.083379
 20
37.973906
 30
0.0
 10
93.473428
 20
37.973906
 30
0.0
 10
93.473428
 20
39.500221
 30
0.0
 10
85.083379
 20
39.500221
 30
0.0
 10
85.083379
 20
43.837183
 30
0.0
 10
93.790375
 20
43.837183
 30
0.0
 10
93.790375
 20
45.363498
 30
0.0
 10
83.118297
 20
45.363498
 30
0.0
 10
83.118297
 20
45.363498
 30
0.0
  0
LWPOLYLINE
  5
103
100
AcDbEntity
  8
Layer_1
 62
7
100
AcDbPolyline
 90
5
 70
0
 10
95.230702
 20
45.363498
 30
0.0
 10
95.230702
 20
31.794231
 30
0.0
 10
97.196334
 20
31.794231
 30
0.0
 10
97.196334
 20
37.638767
 30
0.0
 10
102.268068
 20
37.638767
 30
0.0
  0
SPLINE
  5
104
100
AcDbEntity
  8
Layer_1
 62
7
100
AcDbSpline
 70
0
 71
3
 72
10
 73
6
 74
4
 40
0.000000
 40
0.000000
 40
0.000000
 40
0.000000
 40
1.459576
 40
2.608339
 40
4.006128
 40
4.006128
 40
4.006128
 40
4.006128
 10
102.268068
 20
37.638767
 30
0.0
 10
102.767292
 20
37.618149
 30
0.0
 10
103.659432
 20
37.581302
 30
0.0
 10
104.732613
 20
36.576893
 30
0.0
 10
104.778838
 20
35.700164
 30
0.0
 10
104.804210
 20
35.218932
 30
0.0
 11
102.268068
 21
37.638767
 31
0.0
 11
103.705179
 21
37.383675
 31
0.0
 11
104.536488
 21
36.590843
 31
0.0
 11
104.804210
 21
35.218932
 31
0.0
  0
LWPOLYLINE
  5
105
100
AcDbEntity
  8
Layer_1
 62
7
100
AcDbPolyline
 90
2
 70
0
 10
104.804210
 20
35.218932
 30
0.0
 10
104.783263
 20
34.009014
 30
0.0
  0
SPLINE
  5
106
100
AcDbEntity
  8
Layer_1
 62
7
100
AcDbSpline
 70
0
 71
3
 72
10
 73
6
 74
4
 40
0.000000
 40
0.000000
 40
0.000000
 40
0.000000
 40
0.824156
 40
1.595548
 40
2.274554
 40
2.274554
 40
2.274554
 40
2.274554
 10
104.783263
 20
34.009014
 30
0.0
 10
104.794281
 20
33.734421
 30
0.0
 10
104.815610
 20
33.202816
 30
0.0
 10
104.957882
 20
32.452420
 30
0.0
 10
105.141179
 20
32.004109
 30
0.0
 10
105.226990
 20
31.794231
 30
0.0
 11
104.783263
 21
34.009014
 31
0.0
 11
104.837252
 21
33.186629
 31
0.0
 11
104.989847
 21
32.430480
 31
0.0
 11
105.226990
 21
31.794231
 31
0.0
  0
SPLINE
  5
107
100
AcDbEntity
  8
Layer_1
 62
7
100
AcDbSpline
 70
0
 71
3
 72
10
 73
6
 74
4
 40
0.000000
 40
0.000000
 40
0.000000
 40
0.000000
 40
0.755543
 40
1.617201
 40
3.033002
 40
3.033002
 40
3.033002
 40
3.033002
 10
107.614855
 20
32.221974
 30
0.0
 10
107.404723
 20
32.374271
 30
0.0
 10
106.954945
 20
32.700255
 30
0.0
 10
106.712549
 20
33.739715
 30
0.0
 10
106.695534
 20
34.491102
 30
0.0
 10
106.684956
 20
34.958207
 30
0.0
 11
107.614855
 21
32.221974
 31
0.0
 11
107.054420
 21
32.728687
 31
0.0
 11
106.780454
 21
33.545631
 31
0.0
 11
106.684956
 21
34.958207
 31
0.0
  0
SPLINE
  5
108
100
AcDbEntity
  8
Layer_1
 62
7
100
AcDbSpline
 70
0
 71
3
 72
10
 73
6
 74
4
 40
0.000000
 40
0.000000
 40
0.000000
 40
0.000000
 40
1.778197
 40
3.017031
 40
4.476502
 40
4.476502
 40
4.476502
 40
4.476502
 10
106.684956
 20
34.958207
 30
0.0
 10
106.684083
 20
35.556556
 30
0.0
 10
106.682601
 20
36.571764
 30
0.0
 10
105.919692
 20
37.966768
 30
0.0
 10
105.058759
 20
38.309452
 30
0.0
 10
104.593094
 20
38.494804
 30
0.0
 11
106.684956
 21
34.958207
 31
0.0
 11
106.504238
 21
36.727197
 31
0.0
 11
105.872753
 21
37.793000
 31
0.0
 11
104.593094
 21
38.494804
 31
0.0
  0
LWPOLYLINE
  5
109
100
AcDbEntity
  8
Layer_1
 62
7
100
AcDbPolyline
 90
3
 70
0
 10
105.226990
 20
31.794231
 30
0.0
 10
107.614855
 20
31.794231
 30
0.0
 10
107.614855
 20
32.221974
 30
0.0
  0
LWPOLYLINE
  5
10a
100
AcDbEntity
  8
Layer_1
 62
7
100
AcDbPolyline
 90
3
 70
0
 10
102.331458
 20
45.363498
 30
0.0
 10
95.230702
 20
45.363498
 30
0.0
 10
95.230702
 20
45.363498
 30
0.0
  0
LWPOLYLINE
  5
10b
100
AcDbEntity
  8
Layer_1
 62
7
100
AcDbPolyline
 90
10
 70
0
 10
107.626983
 20
45.363498
 30
0.0
 10
107.626983
 20
43.837183
 30
0.0
 10
112.698713
 20
43.837183
 30
0.0
 10
112.698713
 20
31.794231
 30
0.0
 10
114.664349
 20
31.794231
 30
0.0
 10
114.664349
 20
43.837183
 30
0.0
 10
119.715133
 20
43.837183
 30
0.0
 10
119.715133
 20
45.363498
 30
0.0
 10
107.626983
 20
45.363498
 30
0.0
 10
107.626983
 20
45.363498
 30
0.0
  0
LWPOLYLINE
  5
10c
100
AcDbEntity
  8
Layer_1
 62
7
100
AcDbPolyline
 90
8
 70
0
 10
8.231843
 20
45.322157
 30
0.0
 10
8.231843
 20
26.683363
 30
0.0
 10
20.966570
 20
26.683363
 30
0.0
 10
20.966570
 20
29.879309
 30
0.0
 10
12.060033
 20
29.879309
 30
0.0
 10
12.060033
 20
45.322157
 30
0.0
 10
8.231843
 20
45.322157
 30
0.0
 10
8.231843
 20
45.322157
 30
0.0
  0
LWPOLYLINE
  5
10d
100
AcDbEntity
  8
Layer_1
 62
7
100
AcDbPolyline
 90
14
 70
0
 10
23.808085
 20
45.322157
 30
0.0
 10
23.808085
 20
26.683363
 30
0.0
 10
37.716347
 20
26.683363
 30
0.0
 10
37.716347
 20
29.879309
 30
0.0
 10
27.635724
 20
29.879309
 30
0.0
 10
27.635724
 20
34.711814
 30
0.0
 10
36.542811
 20
34.711814
 30
0.0
 10
36.542811
 20
37.907760
 30
0.0
 10
27.635724
 20
37.907760
 30
0.0
 10
27.635724
 20
42.126210
 30
0.0
 10
37.257186
 20
42.126210
 30
0.0
 10
37.257186
 20
45.322157
 30
0.0
 10
23.808085
 20
45.322157
 30
0.0
 10
23.808085
 20
45.322157
 30
0.0
  0
SPLINE
  5
10e
100
AcDbEntity
  8
Layer_1
 62
7
100
AcDbSpline
 70
0
 71
3
 72
13
 73
9
 74
7
 40
0.000000
 40
0.000000
 40
0.000000
 40
0.000000
 40
1.628527
 40
2.933513
 40
4.320366
 40
6.376017
 40
8.378399
 40
10.981459
 40
10.981459
 40
10.981459
 40
10.981459
 10
104.593094
 20
38.494804
 30
0.0
 10
105.086466
 20
38.733065
 30
0.0
 10
105.975192
 20
39.162250
 30
0.0
 10
106.902554
 20
40.351886
 30
0.0
 10
107.121968
 20
41.954473
 30
0.0
 10
106.714278
 20
43.841544
 30
0.0
 10
104.763167
 20
45.236364
 30
0.0
 10
103.209572
 20
45.317588
 30
0.0
 10
102.331458
 20
45.363498
 30
0.0
 11
104.593094
 21
38.494804
 31
0.0
 11
105.993374
 21
39.326257
 31
0.0
 11
106.778423
 21
40.368701
 31
0.0
 11
107.023402
 21
41.733745
 31
0.0
 11
106.483245
 21
43.717159
 31
0.0
 11
104.900434
 21
44.943634
 31
0.0
 11
102.331458
 21
45.363498
 31
0.0
  0
SPLINE
  5
10f
100
AcDbEntity
  8
Layer_1
 62
7
100
AcDbSpline
 70
0
 71
3
 72
10
 73
6
 74
4
 40
0.000000
 40
0.000000
 40
0.000000
 40
0.000000
 40
2.514239
 40
4.566790
 40
6.482968
 40
6.482968
 40
6.482968
 40
6.482968
 10
48.076990
 20
26.683363
 30
0.0
 10
48.914817
 20
26.715654
 30
0.0
 10
50.436622
 20
26.774305
 30
0.0
 10
52.551875
 20
27.472979
 30
0.0
 10
53.509754
 20
28.406219
 30
0.0
 10
53.972237
 20
28.856805
 30
0.0
 11
48.076990
 21
26.683363
 31
0.0
 11
50.580845
 21
26.911634
 31
0.0
 11
52.506223
 21
27.622893
 31
0.0
 11
53.972237
 21
28.856805
 31
0.0
  0
SPLINE
  5
110
100
AcDbEntity
  8
Layer_1
 62
7
100
AcDbSpline
 70
0
 71
3
 72
13
 73
9
 74
7
 40
0.000000
 40
0.000000
 40
0.000000
 40
0.000000
 40
2.331144
 40
4.860188
 40
7.637296
 40
10.397434
 40
12.926477
 40
15.272123
 40
15.272123
 40
15.272123
 40
15.272123
 10
53.972237
 20
28.856805
 30
0.0
 10
54.418696
 20
29.498380
 30
0.0
 10
55.349517
 20
30.835996
 30
0.0
 10
56.057395
 20
33.321869
 30
0.0
 10
56.302822
 20
36.009713
 30
0.0
 10
56.056575
 20
38.697964
 30
0.0
 10
55.345559
 20
41.180978
 30
0.0
 10
54.418384
 20
42.526581
 30
0.0
 10
53.972237
 20
43.174071
 30
0.0
 11
53.972237
 21
28.856805
 31
0.0
 11
55.201110
 21
30.837741
 31
0.0
 11
55.959353
 21
33.250442
 31
0.0
 11
56.218441
 21
36.015438
 31
0.0
 11
55.959353
 21
38.763389
 31
0.0
 11
55.201110
 21
41.176089
 31
0.0
 11
53.972237
 21
43.174071
 31
0.0
  0
LWPOLYLINE
  5
111
100
AcDbEntity
  8
Layer_1
 62
7
100
AcDbPolyline
 90
3
 70
0
 10
40.803706
 20
45.322157
 30
0.0
 10
40.803706
 20
26.683363
 30
0.0
 10
48.076990
 20
26.683363
 30
0.0
  0
LWPOLYLINE
  5
112
100
AcDbEntity
  8
Layer_1
 62
7
100
AcDbPolyline
 90
3
 70
0
 10
48.076990
 20
45.322157
 30
0.0
 10
40.803706
 20
45.322157
 30
0.0
 10
40.803706
 20
45.322157
 30
0.0
  0
SPLINE
  5
113
100
AcDbEntity
  8
Layer_1
 62
7
100
AcDbSpline
 70
0
 71
3
 72
10
 73
6
 74
4
 40
0.000000
 40
0.000000
 40
0.000000
 40
0.000000
 40
1.907605
 40
3.950629
 40
6.475578
 40
6.475578
 40
6.475578
 40
6.475578
 10
53.972237
 20
43.174071
 30
0.0
 10
53.511766
 20
43.622996
 30
0.0
 10
52.558135
 20
44.552717
 30
0.0
 10
50.440128
 20
45.236954
 30
0.0
 10
48.918224
 20
45.291826
 30
0.0
 10
48.076990
 20
45.322157
 30
0.0
 11
53.972237
 21
43.174071
 31
0.0
 11
52.511894
 21
44.401408
 31
0.0
 11
50.592188
 21
45.100458
 31
0.0
 11
48.076990
 21
45.322157
 31
0.0
  0
SPLINE
  5
114
100
AcDbEntity
  8
Layer_1
 62
7
100
AcDbSpline
 70
0
 71
3
 72
10
 73
6
 74
4
 40
0.000000
 40
0.000000
 40
0.000000
 40
0.000000
 40
0.957189
 40
1.692979
 40
2.317303
 40
2.317303
 40
2.317303
 40
2.317303
 10
101.951118
 20
43.837183
 30
0.0
 10
102.269584
 20
43.829815
 30
0.0
 10
102.832853
 20
43.816785
 30
0.0
 10
103.605358
 20
43.668943
 30
0.0
 10
103.992571
 20
43.426856
 30
0.0
 10
104.170311
 20
43.315733
 30
0.0
 11
101.951118
 21
43.837183
 31
0.0
 11
102.906869
 21
43.784719
 31
0.0
 11
103.623143
 21
43.616379
 31
0.0
 11
104.170311
 21
43.315733
 31
0.0
  0
LWPOLYLINE
  5
115
100
AcDbEntity
  8
Layer_1
 62
7
100
AcDbPolyline
 90
2
 70
0
 10
97.196334
 20
43.837183
 30
0.0
 10
101.951118
 20
43.837183
 30
0.0
  0
LWPOLYLINE
  5
116
100
AcDbEntity
  8
Layer_1
 62
7
100
AcDbPolyline
 90
4
 70
0
 10
101.951118
 20
39.165082
 30
0.0
 10
97.196334
 20
39.165082
 30
0.0
 10
97.196334
 20
43.837183
 30
0.0
 10
97.196334
 20
43.837183
 30
0.0
  0
LWPOLYLINE
  5
117
100
AcDbEntity
  8
Layer_1
 62
7
100
AcDbPolyline
 90
5
 70
0
 10
64.860946
 20
43.502044
 30
0.0
 10
67.227862
 20
37.322369
 30
0.0
 10
62.324804
 20
37.322369
 30
0.0
 10
64.860946
 20
43.502044
 30
0.0
 10
64.860946
 20
43.502044
 30
0.0
  0
SPLINE
  5
118
100
AcDbEntity
  8
Layer_1
 62
7
100
AcDbSpline
 70
0
 71
3
 72
13
 73
9
 74
7
 40
0.000000
 40
0.000000
 40
0.000000
 40
0.000000
 40
0.641459
 40
1.303184
 40
2.045645
 40
3.411140
 40
4.665169
 40
6.396492
 40
6.396492
 40
6.396492
 40
6.396492
 10
104.170311
 20
43.315733
 30
0.0
 10
104.330533
 20
43.170827
 30
0.0
 10
104.656040
 20
42.876439
 30
0.0
 10
104.923180
 20
42.225343
 30
0.0
 10
105.018310
 20
41.311380
 30
0.0
 10
104.831920
 20
40.118770
 30
0.0
 10
103.545878
 20
39.207849
 30
0.0
 10
102.536497
 20
39.180780
 30
0.0
 10
101.951118
 20
39.165082
 30
0.0
 11
104.170311
 21
43.315733
 31
0.0
 11
104.613345
 21
42.851847
 31
0.0
 11
104.882624
 21
42.247390
 31
0.0
 11
104.973430
 21
41.510503
 31
0.0
 11
104.654806
 21
40.182702
 31
0.0
 11
103.664557
 21
39.413289
 31
0.0
 11
101.951118
 21
39.165082
 31
0.0
  0
LWPOLYLINE
  5
119
100
AcDbEntity
  8
Layer_1
 62
7
100
AcDbPolyline
 90
2
 70
0
 10
44.631895
 20
42.126210
 30
0.0
 10
48.076990
 20
42.126210
 30
0.0
  0
LWPOLYLINE
  5
11a
100
AcDbEntity
  8
Layer_1
 62
7
100
AcDbPolyline
 90
4
 70
0
 10
48.076990
 20
29.879309
 30
0.0
 10
44.631895
 20
29.879309
 30
0.0
 10
44.631895
 20
42.126210
 30
0.0
 10
44.631895
 20
42.126210
 30
0.0
  0
LWPOLYLINE
  5
11b
100
AcDbEntity
  8
Layer_1
 62
7
100
AcDbPolyline
 90
9
 70
0
 10
63.800959
 20
33.828216
 30
0.0
 10
62.065182
 20
33.226288
 30
0.0
 10
62.674825
 20
32.815082
 30
0.0
 10
61.440653
 20
30.988355
 30
0.0
 10
62.051401
 20
30.576597
 30
0.0
 10
63.283919
 20
32.404427
 30
0.0
 10
63.893011
 20
31.993220
 30
0.0
 10
63.800959
 20
33.828216
 30
0.0
 10
63.800959
 20
33.828216
 30
0.0
  0
LWPOLYLINE
  5
11c
100
AcDbEntity
  8
Layer_1
 62
7
100
AcDbPolyline
 90
9
 70
0
 10
65.978809
 20
32.328359
 30
0.0
 10
64.243032
 20
31.725881
 30
0.0
 10
64.852127
 20
31.315225
 30
0.0
 10
63.618505
 20
29.487946
 30
0.0
 10
64.229251
 20
29.076189
 30
0.0
 10
65.461769
 20
30.904018
 30
0.0
 10
66.070864
 20
30.493363
 30
0.0
 10
65.978809
 20
32.328359
 30
0.0
 10
65.978809
 20
32.328359
 30
0.0
  0
LWPOLYLINE
  5
11d
100
AcDbEntity
  8
Layer_1
 62
7
100
AcDbPolyline
 90
9
 70
0
 10
59.001527
 20
28.236688
 30
0.0
 10
59.001527
 20
22.720678
 30
0.0
 10
5.999973
 20
22.720678
 30
0.0
 10
5.999973
 20
21.495325
 30
0.0
 10
59.001527
 20
21.495325
 30
0.0
 10
59.001527
 20
15.979865
 30
0.0
 10
68.194696
 20
22.108275
 30
0.0
 10
59.001527
 20
28.236688
 30
0.0
 10
59.001527
 20
28.236688
 30
0.0
  0
LWPOLYLINE
  5
11e
100
AcDbEntity
  8
Layer_1
 62
7
100
AcDbPolyline
 90
11
 70
0
 10
68.194696
 20
22.108275
 30
0.0
 10
68.194696
 20
15.979865
 30
0.0
 10
69.420046
 20
15.979865
 30
0.0
 10
69.420046
 20
21.495325
 30
0.0
 10
120.029876
 20
21.495325
 30
0.0
 10
120.029876
 20
22.720678
 30
0.0
 10
69.420046
 20
22.720678
 30
0.0
 10
69.420046
 20
28.236688
 30
0.0
 10
68.194696
 20
28.236688
 30
0.0
 10
68.194696
 20
22.108275
 30
0.0
 10
68.194696
 20
22.108275
 30
0.0
  0
LWPOLYLINE
  5
11f
100
AcDbEntity
  8
Layer_1
 62
7
100
AcDbPolyline
 90
14
 70
0
 10
8.756600
 20
17.927308
 30
0.0
 10
8.756600
 20
7.975667
 30
0.0
 10
10.023844
 20
7.975667
 30
0.0
 10
10.023844
 20
12.508311
 30
0.0
 10
15.133610
 20
12.508311
 30
0.0
 10
15.133610
 20
7.975667
 30
0.0
 10
16.400854
 20
7.975667
 30
0.0
 10
16.400854
 20
17.927308
 30
0.0
 10
15.133610
 20
17.927308
 30
0.0
 10
15.133610
 20
13.627277
 30
0.0
 10
10.023844
 20
13.627277
 30
0.0
 10
10.023844
 20
17.927308
 30
0.0
 10
8.756600
 20
17.927308
 30
0.0
 10
8.756600
 20
17.927308
 30
0.0
  0
SPLINE
  5
120
100
AcDbEntity
  8
Layer_1
 62
7
100
AcDbSpline
 70
0
 71
3
 72
13
 73
9
 74
7
 40
0.000000
 40
0.000000
 40
0.000000
 40
0.000000
 40
2.493378
 40
4.987808
 40
8.441282
 40
11.876992
 40
14.366088
 40
16.859225
 40
16.859225
 40
16.859225
 40
16.859225
 10
48.076990
 20
42.126210
 30
0.0
 10
48.942617
 20
42.012722
 30
0.0
 10
50.674236
 20
41.785697
 30
0.0
 10
52.271174
 20
39.128346
 30
0.0
 10
52.459703
 20
35.996222
 30
0.0
 10
52.269958
 20
32.864738
 30
0.0
 10
50.671721
 20
30.218895
 30
0.0
 10
48.942368
 20
29.992566
 30
0.0
 10
48.076990
 20
29.879309
 30
0.0
 11
48.076990
 21
42.126210
 31
0.0
 11
50.476950
 21
41.450097
 31
0.0
 11
51.912852
 21
39.410400
 31
0.0
 11
52.390252
 21
35.990082
 31
0.0
 11
51.912852
 21
32.587702
 31
0.0
 11
50.476950
 21
30.554531
 31
0.0
 11
48.076990
 21
29.879309
 31
0.0
  0
SPLINE
  5
121
100
AcDbEntity
  8
Layer_1
 62
7
100
AcDbSpline
 70
0
 71
3
 72
10
 73
6
 74
4
 40
0.000000
 40
0.000000
 40
0.000000
 40
0.000000
 40
0.976846
 40
1.824684
 40
2.575824
 40
2.575824
 40
2.575824
 40
2.575824
 10
24.397885
 20
15.333841
 30
0.0
 10
24.072611
 20
15.316363
 30
0.0
 10
23.465020
 20
15.283716
 30
0.0
 10
22.626360
 20
15.015041
 30
0.0
 10
22.218640
 20
14.665266
 30
0.0
 10
22.027108
 20
14.500956
 30
0.0
 11
24.397885
 21
15.333841
 31
0.0
 11
23.425930
 21
15.236217
 31
0.0
 11
22.626615
 21
14.953506
 31
0.0
 11
22.027108
 21
14.500956
 31
0.0
  0
LWPOLYLINE
  5
122
100
AcDbEntity
  8
Layer_1
 62
7
100
AcDbPolyline
 90
14
 70
0
 10
42.195524
 20
17.927308
 30
0.0
 10
42.195524
 20
7.975667
 30
0.0
 10
43.326617
 20
7.975667
 30
0.0
 10
43.326617
 20
10.760958
 30
0.0
 10
44.430151
 20
11.852915
 30
0.0
 10
46.842268
 20
7.975667
 30
0.0
 10
48.245663
 20
7.975667
 30
0.0
 10
45.329735
 20
12.658242
 30
0.0
 10
47.809652
 20
15.129340
 30
0.0
 10
46.351687
 20
15.129340
 30
0.0
 10
43.326617
 20
12.098759
 30
0.0
 10
43.326617
 20
17.927308
 30
0.0
 10
42.195524
 20
17.927308
 30
0.0
 10
42.195524
 20
17.927308
 30
0.0
  0
SPLINE
  5
123
100
AcDbEntity
  8
Layer_1
 62
7
100
AcDbSpline
 70
0
 71
3
 72
10
 73
6
 74
4
 40
0.000000
 40
0.000000
 40
0.000000
 40
0.000000
 40
0.473813
 40
0.975815
 40
1.598682
 40
1.598682
 40
1.598682
 40
1.598682
 10
22.027108
 20
14.500956
 30
0.0
 10
21.930042
 20
14.374947
 30
0.0
 10
21.730133
 20
14.115434
 30
0.0
 10
21.574418
 20
13.594716
 30
0.0
 10
21.550030
 20
13.220459
 30
0.0
 10
21.536527
 20
13.013224
 30
0.0
 11
22.027108
 21
14.500956
 31
0.0
 11
21.760631
 21
14.109180
 31
0.0
 11
21.603154
 21
13.632516
 31
0.0
 11
21.536527
 21
13.013224
 31
0.0
  0
LWPOLYLINE
  5
124
100
AcDbEntity
  8
Layer_1
 62
7
100
AcDbPolyline
 90
2
 70
0
 10
21.536527
 20
13.013224
 30
0.0
 10
22.680849
 20
13.013224
 30
0.0
  0
SPLINE
  5
125
100
AcDbEntity
  8
Layer_1
 62
7
100
AcDbSpline
 70
0
 71
3
 72
13
 73
9
 74
7
 40
0.000000
 40
0.000000
 40
0.000000
 40
0.000000
 40
0.756741
 40
1.446751
 40
2.342738
 40
3.225106
 40
3.872546
 40
4.480259
 40
4.480259
 40
4.480259
 40
4.480259
 10
22.680849
 20
13.013224
 30
0.0
 10
22.730790
 20
13.269780
 30
0.0
 10
22.826269
 20
13.760269
 30
0.0
 10
23.519253
 20
14.245228
 30
0.0
 10
24.356348
 20
14.304905
 30
0.0
 10
25.158202
 20
14.242320
 30
0.0
 10
25.842880
 20
13.859556
 30
0.0
 10
25.915870
 20
13.427106
 30
0.0
 10
25.951210
 20
13.217725
 30
0.0
 11
22.680849
 21
13.013224
 31
0.0
 11
22.921635
 21
13.730636
 31
0.0
 11
23.471332
 21
14.147705
 31
0.0
 11
24.357095
 21
14.282674
 31
0.0
 11
25.230647
 21
14.158255
 31
0.0
 11
25.768052
 21
13.797180
 31
0.0
 11
25.951210
 21
13.217725
 31
0.0
  0
SPLINE
  5
126
100
AcDbEntity
  8
Layer_1
 62
7
100
AcDbSpline
 70
0
 71
3
 72
10
 73
6
 74
4
 40
0.000000
 40
0.000000
 40
0.000000
 40
0.000000
 40
0.410759
 40
0.847534
 40
1.579276
 40
1.579276
 40
1.579276
 40
1.579276
 10
25.951210
 20
12.917864
 30
0.0
 10
25.934184
 20
12.773913
 30
0.0
 10
25.899055
 20
12.476895
 30
0.0
 10
25.386861
 20
12.204101
 30
0.0
 10
25.005137
 20
12.155932
 30
0.0
 10
24.766097
 20
12.125768
 30
0.0
 11
25.951210
 21
12.917864
 31
0.0
 11
25.843820
 21
12.521392
 31
0.0
 11
25.482141
 21
12.276522
 31
0.0
 11
24.766097
 21
12.125768
 31
0.0
  0
SPLINE
  5
127
100
AcDbEntity
  8
Layer_1
 62
7
100
AcDbSpline
 70
0
 71
3
 72
10
 73
6
 74
4
 40
0.000000
 40
0.000000
 40
0.000000
 40
0.000000
 40
1.222372
 40
1.882365
 40
2.336634
 40
2.336634
 40
2.336634
 40
2.336634
 10
24.766097
 20
12.125768
 30
0.0
 10
24.362553
 20
12.073036
 30
0.0
 10
23.741124
 20
11.991834
 30
0.0
 10
22.968000
 20
11.871726
 30
0.0
 10
22.619129
 20
11.742067
 30
0.0
 10
22.476900
 20
11.689207
 30
0.0
 11
24.766097
 21
12.125768
 31
0.0
 11
23.554878
 21
11.961014
 31
0.0
 11
22.906880
 21
11.835757
 31
0.0
 11
22.476900
 21
11.689207
 31
0.0
  0
SPLINE
  5
128
100
AcDbEntity
  8
Layer_1
 62
7
100
AcDbSpline
 70
0
 71
3
 72
16
 73
12
 74
10
 40
0.000000
 40
0.000000
 40
0.000000
 40
0.000000
 40
0.825908
 40
1.586717
 40
2.427674
 40
3.588624
 40
4.677643
 40
5.954085
 40
6.810994
 40
7.671525
 40
8.660764
 40
8.660764
 40
8.660764
 40
8.660764
 10
22.476900
 20
11.689207
 30
0.0
 10
22.229365
 20
11.559869
 30
0.0
 10
21.753805
 20
11.311390
 30
0.0
 10
21.297644
 20
10.598525
 30
0.0
 10
21.165253
 20
9.674400
 30
0.0
 10
21.387218
 20
8.611656
 30
0.0
 10
22.330224
 20
7.788994
 30
0.0
 10
23.429449
 20
7.614054
 30
0.0
 10
24.427568
 20
7.728854
 30
0.0
 10
25.268384
 20
8.098675
 30
0.0
 10
25.740218
 20
8.499067
 30
0.0
 10
25.992551
 20
8.713193
 30
0.0
 11
22.476900
 21
11.689207
 31
0.0
 11
21.782362
 21
11.242282
 31
0.0
 11
21.363289
 21
10.607295
 31
0.0
 11
21.222885
 21
9.778142
 31
0.0
 11
21.509555
 21
8.653142
 31
0.0
 11
22.317061
 21
7.922460
 31
0.0
 11
23.566652
 21
7.662025
 31
0.0
 11
24.416637
 21
7.770738
 31
0.0
 11
25.206156
 21
8.113044
 31
0.0
 11
25.992551
 21
8.713193
 31
0.0
  0
LWPOLYLINE
  5
129
100
AcDbEntity
  8
Layer_1
 62
7
100
AcDbPolyline
 90
2
 70
0
 10
25.951210
 20
13.217725
 30
0.0
 10
25.951210
 20
12.917864
 30
0.0
  0
SPLINE
  5
12a
100
AcDbEntity
  8
Layer_1
 62
7
100
AcDbSpline
 70
0
 71
3
 72
13
 73
9
 74
7
 40
0.000000
 40
0.000000
 40
0.000000
 40
0.000000
 40
0.625565
 40
1.138711
 40
1.760824
 40
1.986798
 40
2.224767
 40
2.549944
 40
2.549944
 40
2.549944
 40
2.549944
 10
25.992551
 20
8.713193
 30
0.0
 10
26.026851
 20
8.501790
 30
0.0
 10
26.089288
 20
8.116976
 30
0.0
 10
26.562943
 20
7.696434
 30
0.0
 10
27.033052
 20
7.654670
 30
0.0
 10
27.393901
 20
7.667779
 30
0.0
 10
27.653875
 20
7.713357
 30
0.0
 10
27.835957
 20
7.758741
 30
0.0
 10
27.941097
 20
7.784947
 30
0.0
 11
25.992551
 21
8.713193
 31
0.0
 11
26.169052
 21
8.113044
 31
0.0
 11
26.551343
 21
7.770738
 31
0.0
 11
27.163883
 21
7.662025
 31
0.0
 11
27.389606
 21
7.672663
 31
0.0
 11
27.624530
 21
7.710616
 31
0.0
 11
27.941097
 21
7.784947
 31
0.0
  0
LWPOLYLINE
  5
12b
100
AcDbEntity
  8
Layer_1
 62
7
100
AcDbPolyline
 90
2
 70
0
 10
27.941097
 20
7.784947
 30
0.0
 10
27.941097
 20
8.644844
 30
0.0
  0
SPLINE
  5
12c
100
AcDbEntity
  8
Layer_1
 62
7
100
AcDbSpline
 70
0
 71
3
 72
13
 73
9
 74
7
 40
0.000000
 40
0.000000
 40
0.000000
 40
0.000000
 40
0.104748
 40
0.180800
 40
0.247430
 40
0.588622
 40
0.870548
 40
1.181751
 40
1.181751
 40
1.181751
 40
1.181751
 10
27.941097
 20
8.644844
 30
0.0
 10
27.906904
 20
8.637666
 30
0.0
 10
27.847885
 20
8.625277
 30
0.0
 10
27.765566
 20
8.617532
 30
0.0
 10
27.604543
 20
8.615832
 30
0.0
 10
27.368372
 20
8.644205
 30
0.0
 10
27.113688
 20
8.867487
 30
0.0
 10
27.093104
 20
9.070696
 30
0.0
 10
27.082304
 20
9.177316
 30
0.0
 11
27.941097
 21
8.644844
 31
0.0
 11
27.838138
 21
8.625569
 31
0.0
 11
27.762428
 21
8.618364
 31
0.0
 11
27.695806
 21
8.617283
 31
0.0
 11
27.361122
 21
8.683604
 31
0.0
 11
27.153546
 21
8.874377
 31
0.0
 11
27.082304
 21
9.177316
 31
0.0
  0
LWPOLYLINE
  5
12d
100
AcDbEntity
  8
Layer_1
 62
7
100
AcDbPolyline
 90
2
 70
0
 10
27.082304
 20
9.177316
 30
0.0
 10
27.082304
 20
13.381987
 30
0.0
  0
SPLINE
  5
12e
100
AcDbEntity
  8
Layer_1
 62
7
100
AcDbSpline
 70
0
 71
3
 72
10
 73
6
 74
4
 40
0.000000
 40
0.000000
 40
0.000000
 40
0.000000
 40
1.112983
 40
2.229183
 40
3.723255
 40
3.723255
 40
3.723255
 40
3.723255
 10
27.082304
 20
13.381987
 30
0.0
 10
27.028961
 20
13.765999
 30
0.0
 10
26.922121
 20
14.535133
 30
0.0
 10
25.770038
 20
15.271973
 30
0.0
 10
24.897379
 20
15.311320
 30
0.0
 10
24.397885
 20
15.333841
 30
0.0
 11
27.082304
 21
13.381987
 31
0.0
 11
26.776962
 21
14.452266
 31
0.0
 11
25.875083
 21
15.109926
 31
0.0
 11
24.397885
 21
15.333841
 31
0.0
  0
LWPOLYLINE
  5
12f
100
AcDbEntity
  8
Layer_1
 62
7
100
AcDbPolyline
 90
2
 70
0
 10
24.397885
 20
15.333841
 30
0.0
 10
24.397885
 20
15.333841
 30
0.0
  0
SPLINE
  5
130
100
AcDbEntity
  8
Layer_1
 62
7
100
AcDbSpline
 70
0
 71
3
 72
16
 73
12
 74
10
 40
0.000000
 40
0.000000
 40
0.000000
 40
0.000000
 40
1.751291
 40
3.493266
 40
5.598179
 40
7.637850
 40
9.336710
 40
11.079196
 40
12.598212
 40
13.971183
 40
15.529023
 40
15.529023
 40
15.529023
 40
15.529023
 10
35.010985
 20
15.333841
 30
0.0
 10
34.412613
 20
15.242691
 30
0.0
 10
33.219052
 20
15.060874
 30
0.0
 10
32.021335
 20
13.424615
 30
0.0
 10
31.736313
 20
11.456172
 30
0.0
 10
32.018472
 20
9.476053
 30
0.0
 10
33.224856
 20
7.948248
 30
0.0
 10
34.925594
 20
7.545735
 30
0.0
 10
36.492395
 20
7.838868
 30
0.0
 10
37.654888
 20
8.923554
 30
0.0
 10
37.823865
 20
9.909119
 30
0.0
 10
37.913683
 20
10.432985
 30
0.0
 11
35.010985
 21
15.333841
 31
0.0
 11
33.328010
 21
14.849466
 31
0.0
 11
32.229556
 21
13.497478
 31
0.0
 11
31.836535
 21
11.429582
 31
0.0
 11
32.226127
 21
9.427463
 31
0.0
 11
33.318211
 21
8.126127
 31
0.0
 11
34.997754
 21
7.662025
 31
0.0
 11
36.480469
 21
7.992126
 31
0.0
 11
37.475647
 21
8.937996
 31
0.0
 11
37.913683
 21
10.432985
 31
0.0
  0
LWPOLYLINE
  5
131
100
AcDbEntity
  8
Layer_1
 62
7
100
AcDbPolyline
 90
2
 70
0
 10
37.913683
 20
10.432985
 30
0.0
 10
36.768809
 20
10.432985
 30
0.0
  0
SPLINE
  5
132
100
AcDbEntity
  8
Layer_1
 62
7
100
AcDbSpline
 70
0
 71
3
 72
19
 73
15
 74
13
 40
0.000000
 40
0.000000
 40
0.000000
 40
0.000000
 40
1.008292
 40
1.825428
 40
2.686637
 40
3.812012
 40
4.968972
 40
6.445305
 40
7.997948
 40
9.185398
 40
10.302559
 40
11.153894
 40
11.931597
 40
12.825140
 40
12.825140
 40
12.825140
 40
12.825140
 10
36.768809
 20
10.432985
 30
0.0
 10
36.693874
 20
10.100141
 30
0.0
 10
36.558212
 20
9.497555
 30
0.0
 10
35.889900
 20
8.818211
 30
0.0
 10
34.936306
 20
8.637042
 30
0.0
 10
33.855445
 20
8.931377
 30
0.0
 10
33.118328
 20
10.047779
 30
0.0
 10
32.968010
 20
11.456540
 30
0.0
 10
33.114840
 20
12.868082
 30
0.0
 10
33.822900
 20
14.044195
 30
0.0
 10
34.910415
 20
14.360425
 30
0.0
 10
35.838272
 20
14.183448
 30
0.0
 10
36.499286
 20
13.578591
 30
0.0
 10
36.621752
 20
13.023420
 30
0.0
 10
36.687229
 20
12.726593
 30
0.0
 11
36.768809
 21
10.432985
 31
0.0
 11
36.446855
 21
9.477475
 31
0.0
 11
35.864516
 21
8.904246
 31
0.0
 11
35.024766
 21
8.713193
 31
0.0
 11
33.948277
 21
9.041281
 31
0.0
 11
33.262394
 21
9.973010
 31
0.0
 11
33.021648
 21
11.429582
 31
0.0
 11
33.258419
 21
12.964065
 31
0.0
 11
33.934324
 21
13.940380
 31
0.0
 11
34.997754
 21
14.282674
 31
0.0
 11
35.829412
 21
14.100696
 31
0.0
 11
36.400619
 21
13.572922
 31
0.0
 11
36.687229
 21
12.726593
 31
0.0
  0
SPLINE
  5
133
100
AcDbEntity
  8
Layer_1
 62
7
100
AcDbSpline
 70
0
 71
3
 72
10
 73
6
 74
4
 40
0.000000
 40
0.000000
 40
0.000000
 40
0.000000
 40
0.627426
 40
1.151452
 40
1.632594
 40
1.632594
 40
1.632594
 40
1.632594
 10
37.832103
 20
12.726593
 30
0.0
 10
37.809786
 20
12.934649
 30
0.0
 10
37.768829
 20
13.316472
 30
0.0
 10
37.613006
 20
13.844182
 30
0.0
 10
37.438353
 20
14.131407
 30
0.0
 10
37.354753
 20
14.268893
 30
0.0
 11
37.832103
 21
12.726593
 31
0.0
 11
37.744681
 21
13.347899
 31
0.0
 11
37.587520
 21
13.847803
 31
0.0
 11
37.354753
 21
14.268893
 31
0.0
  0
LWPOLYLINE
  5
134
100
AcDbEntity
  8
Layer_1
 62
7
100
AcDbPolyline
 90
2
 70
0
 10
36.687229
 20
12.726593
 30
0.0
 10
37.832103
 20
12.726593
 30
0.0
  0
SPLINE
  5
135
100
AcDbEntity
  8
Layer_1
 62
7
100
AcDbSpline
 70
0
 71
3
 72
10
 73
6
 74
4
 40
0.000000
 40
0.000000
 40
0.000000
 40
0.000000
 40
0.833266
 40
1.710793
 40
2.660118
 40
2.660118
 40
2.660118
 40
2.660118
 10
37.354753
 20
14.268893
 30
0.0
 10
37.165092
 20
14.474855
 30
0.0
 10
36.775697
 20
14.897720
 30
0.0
 10
35.936668
 20
15.263563
 30
0.0
 10
35.327526
 20
15.309809
 30
0.0
 10
35.010985
 20
15.333841
 30
0.0
 11
37.354753
 21
14.268893
 31
0.0
 11
36.750138
 21
14.842280
 31
0.0
 11
35.951715
 21
15.206388
 31
0.0
 11
35.010985
 21
15.333841
 31
0.0
  0
LWPOLYLINE
  5
136
100
AcDbEntity
  8
Layer_1
 62
7
100
AcDbPolyline
 90
2
 70
0
 10
35.010985
 20
15.333841
 30
0.0
 10
35.010985
 20
15.333841
 30
0.0
  0
SPLINE
  5
137
100
AcDbEntity
  8
Layer_1
 62
7
100
AcDbSpline
 70
0
 71
3
 72
16
 73
12
 74
10
 40
0.000000
 40
0.000000
 40
0.000000
 40
0.000000
 40
1.797414
 40
3.553234
 40
5.647600
 40
7.718680
 40
9.432051
 40
11.228732
 40
12.713561
 40
14.059130
 40
15.505671
 40
15.505671
 40
15.505671
 40
15.505671
 10
55.211921
 20
15.333841
 30
0.0
 10
54.598142
 20
15.245699
 30
0.0
 10
53.384789
 20
15.071455
 30
0.0
 10
52.134989
 20
13.453845
 30
0.0
 10
51.840899
 20
11.469540
 30
0.0
 10
52.117341
 20
9.473822
 30
0.0
 10
53.364481
 20
7.929872
 30
0.0
 10
55.086594
 20
7.552746
 30
0.0
 10
56.636030
 20
7.828156
 30
0.0
 10
57.828071
 20
8.762688
 30
0.0
 10
58.097437
 20
9.674145
 30
0.0
 10
58.236990
 20
10.146354
 30
0.0
 11
55.211921
 21
15.333841
 31
0.0
 11
53.479857
 21
14.853578
 31
0.0
 11
52.347336
 21
13.511825
 31
0.0
 11
51.941561
 21
11.457144
 31
0.0
 11
52.334134
 21
9.423611
 31
0.0
 11
53.447330
 21
8.121138
 31
0.0
 11
55.184362
 21
7.662025
 31
0.0
 11
56.638926
 21
7.960284
 31
0.0
 11
57.681755
 21
8.810616
 31
0.0
 11
58.236990
 21
10.146354
 31
0.0
  0
SPLINE
  5
138
100
AcDbEntity
  8
Layer_1
 62
7
100
AcDbSpline
 70
0
 71
3
 72
13
 73
9
 74
7
 40
0.000000
 40
0.000000
 40
0.000000
 40
0.000000
 40
0.895014
 40
1.684395
 40
2.520291
 40
3.210015
 40
3.870573
 40
4.551751
 40
4.551751
 40
4.551751
 40
4.551751
 10
57.092116
 20
10.146354
 30
0.0
 10
56.975324
 20
9.867207
 30
0.0
 10
56.755523
 20
9.341859
 30
0.0
 10
56.056115
 20
8.806205
 30
0.0
 10
55.272854
 20
8.672530
 30
0.0
 10
54.544179
 20
8.780685
 30
0.0
 10
53.924154
 20
9.101717
 30
0.0
 10
53.648575
 20
9.459700
 30
0.0
 10
53.508667
 20
9.641442
 30
0.0
 11
57.092116
 21
10.146354
 31
0.0
 11
56.671821
 21
9.356163
 31
0.0
 11
56.045701
 21
8.875438
 31
0.0
 11
55.225702
 21
8.713193
 31
0.0
 11
54.544357
 21
8.820374
 31
0.0
 11
53.962909
 21
9.133832
 31
0.0
 11
53.508667
 21
9.641442
 31
0.0
  0
LWPOLYLINE
  5
139
100
AcDbEntity
  8
Layer_1
 62
7
100
AcDbPolyline
 90
2
 70
0
 10
58.236990
 20
10.146354
 30
0.0
 10
57.092116
 20
10.146354
 30
0.0
  0
SPLINE
  5
13a
100
AcDbEntity
  8
Layer_1
 62
7
100
AcDbSpline
 70
0
 71
3
 72
10
 73
6
 74
4
 40
0.000000
 40
0.000000
 40
0.000000
 40
0.000000
 40
0.473358
 40
0.975393
 40
1.597885
 40
1.597885
 40
1.597885
 40
1.597885
 10
53.508667
 20
9.641442
 30
0.0
 10
53.428955
 20
9.778573
 30
0.0
 10
53.264701
 20
10.061144
 30
0.0
 10
53.149694
 20
10.588745
 30
0.0
 10
53.135231
 20
10.963218
 30
0.0
 10
53.127224
 20
11.170510
 30
0.0
 11
53.508667
 21
9.641442
 31
0.0
 11
53.291681
 21
10.062137
 31
0.0
 11
53.171613
 21
10.549603
 31
0.0
 11
53.127224
 21
11.170510
 31
0.0
  0
SPLINE
  5
13b
100
AcDbEntity
  8
Layer_1
 62
7
100
AcDbSpline
 70
0
 71
3
 72
10
 73
6
 74
4
 40
0.000000
 40
0.000000
 40
0.000000
 40
0.000000
 40
0.958416
 40
1.700616
 40
2.308305
 40
2.308305
 40
2.308305
 40
2.308305
 10
58.386921
 20
11.170510
 30
0.0
 10
58.382504
 20
11.489755
 30
0.0
 10
58.374667
 20
12.056222
 30
0.0
 10
58.297801
 20
12.826186
 30
0.0
 10
58.161983
 20
13.256204
 30
0.0
 10
58.100841
 20
13.449788
 30
0.0
 11
58.386921
 21
11.170510
 31
0.0
 11
58.358173
 21
12.128496
 31
0.0
 11
58.265852
 21
12.864931
 31
0.0
 11
58.100841
 21
13.449788
 31
0.0
  0
LWPOLYLINE
  5
13c
100
AcDbEntity
  8
Layer_1
 62
7
100
AcDbPolyline
 90
2
 70
0
 10
53.127224
 20
11.170510
 30
0.0
 10
58.386921
 20
11.170510
 30
0.0
  0
SPLINE
  5
13d
100
AcDbEntity
  8
Layer_1
 62
7
100
AcDbSpline
 70
0
 71
3
 72
10
 73
6
 74
4
 40
0.000000
 40
0.000000
 40
0.000000
 40
0.000000
 40
1.205700
 40
2.389014
 40
3.649257
 40
3.649257
 40
3.649257
 40
3.649257
 10
58.100841
 20
13.449788
 30
0.0
 10
57.909137
 20
13.808458
 30
0.0
 10
57.529290
 20
14.519138
 30
0.0
 10
56.451147
 20
15.210236
 30
0.0
 10
55.633576
 20
15.291784
 30
0.0
 10
55.211921
 20
15.333841
 30
0.0
 11
58.100841
 21
13.449788
 31
0.0
 11
57.442704
 21
14.460020
 31
0.0
 11
56.451446
 21
15.106270
 31
0.0
 11
55.211921
 21
15.333841
 31
0.0
  0
LWPOLYLINE
  5
13e
100
AcDbEntity
  8
Layer_1
 62
7
100
AcDbPolyline
 90
2
 70
0
 10
55.211921
 20
15.333841
 30
0.0
 10
55.211921
 20
15.333841
 30
0.0
  0
SPLINE
  5
13f
100
AcDbEntity
  8
Layer_1
 62
7
100
AcDbSpline
 70
0
 71
3
 72
10
 73
6
 74
4
 40
0.000000
 40
0.000000
 40
0.000000
 40
0.000000
 40
0.703620
 40
1.498963
 40
2.568455
 40
2.568455
 40
2.568455
 40
2.568455
 10
66.097319
 20
15.333841
 30
0.0
 10
65.860066
 20
15.303546
 30
0.0
 10
65.354630
 20
15.239006
 30
0.0
 10
64.682231
 20
14.648004
 30
0.0
 10
64.343207
 20
14.129623
 30
0.0
 10
64.148775
 20
13.832329
 30
0.0
 11
66.097319
 21
15.333841
 31
0.0
 11
65.410461
 21
15.181178
 31
0.0
 11
64.781135
 21
14.694845
 31
0.0
 11
64.148775
 21
13.832329
 31
0.0
  0
LWPOLYLINE
  5
140
100
AcDbEntity
  8
Layer_1
 62
7
100
AcDbPolyline
 90
6
 70
0
 10
64.148775
 20
13.832329
 30
0.0
 10
64.148775
 20
15.129340
 30
0.0
 10
63.099812
 20
15.129340
 30
0.0
 10
63.099812
 20
7.975667
 30
0.0
 10
64.244686
 20
7.975667
 30
0.0
 10
64.244686
 20
11.689207
 30
0.0
  0
SPLINE
  5
141
100
AcDbEntity
  8
Layer_1
 62
7
100
AcDbSpline
 70
0
 71
3
 72
10
 73
6
 74
4
 40
0.000000
 40
0.000000
 40
0.000000
 40
0.000000
 40
1.429335
 40
2.529051
 40
3.836911
 40
3.836911
 40
3.836911
 40
3.836911
 10
64.244686
 20
11.689207
 30
0.0
 10
64.266368
 20
12.176325
 30
0.0
 10
64.304734
 20
13.038227
 30
0.0
 10
65.247663
 20
14.087997
 30
0.0
 10
66.081124
 20
14.116992
 30
0.0
 10
66.533883
 20
14.132743
 30
0.0
 11
64.244686
 21
11.689207
 31
0.0
 11
64.496001
 21
13.096275
 31
0.0
 11
65.246959
 21
13.899665
 31
0.0
 11
66.533883
 21
14.132743
 31
0.0
  0
LWPOLYLINE
  5
142
100
AcDbEntity
  8
Layer_1
 62
7
100
AcDbPolyline
 90
2
 70
0
 10
66.533883
 20
14.132743
 30
0.0
 10
66.533883
 20
15.293052
 30
0.0
  0
SPLINE
  5
143
100
AcDbEntity
  8
Layer_1
 62
7
100
AcDbSpline
 70
0
 71
3
 72
10
 73
6
 74
4
 40
0.000000
 40
0.000000
 40
0.000000
 40
0.000000
 40
0.169217
 40
0.307410
 40
0.438840
 40
0.438840
 40
0.438840
 40
0.438840
 10
66.533883
 20
15.293052
 30
0.0
 10
66.478039
 20
15.300942
 30
0.0
 10
66.376589
 20
15.315276
 30
0.0
 10
66.231039
 20
15.331184
 30
0.0
 10
66.141141
 20
15.332970
 30
0.0
 10
66.097319
 20
15.333841
 30
0.0
 11
66.533883
 21
15.293052
 31
0.0
 11
66.366196
 21
15.315756
 31
0.0
 11
66.228671
 21
15.329331
 31
0.0
 11
66.097319
 21
15.333841
 31
0.0
  0
LWPOLYLINE
  5
144
100
AcDbEntity
  8
Layer_1
 62
7
100
AcDbPolyline
 90
2
 70
0
 10
66.097319
 20
15.333841
 30
0.0
 10
66.097319
 20
15.333841
 30
0.0
  0
SPLINE
  5
145
100
AcDbEntity
  8
Layer_1
 62
7
100
AcDbSpline
 70
0
 71
3
 72
13
 73
9
 74
7
 40
0.000000
 40
0.000000
 40
0.000000
 40
0.000000
 40
1.474251
 40
2.688627
 40
3.892547
 40
4.856889
 40
5.824152
 40
7.241034
 40
7.241034
 40
7.241034
 40
7.241034
 10
73.268081
 20
15.333841
 30
0.0
 10
72.771321
 20
15.294050
 30
0.0
 10
71.865368
 20
15.221481
 30
0.0
 10
70.752747
 20
14.381751
 30
0.0
 10
70.451621
 20
13.236787
 30
0.0
 10
70.635913
 20
12.148415
 30
0.0
 10
71.558589
 20
11.400132
 30
0.0
 10
72.331779
 20
11.204590
 30
0.0
 10
72.791280
 20
11.088381
 30
0.0
 11
73.268081
 21
15.333841
 31
0.0
 11
71.819129
 21
15.061897
 31
0.0
 11
70.869778
 21
14.304638
 31
0.0
 11
70.529092
 21
13.149927
 31
0.0
 11
70.740106
 21
12.208955
 31
0.0
 11
71.453829
 21
11.556117
 31
0.0
 11
72.791280
 21
11.088381
 31
0.0
  0
SPLINE
  5
146
100
AcDbEntity
  8
Layer_1
 62
7
100
AcDbSpline
 70
0
 71
3
 72
16
 73
12
 74
10
 40
0.000000
 40
0.000000
 40
0.000000
 40
0.000000
 40
0.676743
 40
1.154200
 40
1.604773
 40
2.237646
 40
2.938158
 40
3.822737
 40
4.401915
 40
4.911311
 40
5.352497
 40
5.352497
 40
5.352497
 40
5.352497
 10
73.854022
 20
10.828759
 30
0.0
 10
74.072710
 20
10.770561
 30
0.0
 10
74.445687
 20
10.671304
 30
0.0
 10
74.888608
 20
10.319313
 30
0.0
 10
75.008403
 20
9.782141
 30
0.0
 10
74.794431
 20
9.178311
 30
0.0
 10
74.122674
 20
8.779818
 30
0.0
 10
73.395690
 20
8.686705
 30
0.0
 10
72.740226
 20
8.748083
 30
0.0
 10
72.240461
 20
8.895463
 30
0.0
 10
71.992842
 20
9.097382
 30
0.0
 10
71.877916
 20
9.191097
 30
0.0
 11
73.854022
 21
10.828759
 31
0.0
 11
74.491379
 21
10.601256
 31
0.0
 11
74.847082
 21
10.282759
 31
0.0
 11
74.957556
 21
9.845940
 31
0.0
 11
74.747595
 21
9.248910
 31
0.0
 11
74.168196
 21
8.855191
 31
0.0
 11
73.295089
 21
8.713193
 31
0.0
 11
72.718739
 21
8.770356
 31
0.0
 11
72.236248
 21
8.933720
 31
0.0
 11
71.877916
 21
9.191097
 31
0.0
  0
LWPOLYLINE
  5
147
100
AcDbEntity
  8
Layer_1
 62
7
100
AcDbPolyline
 90
2
 70
0
 10
72.791280
 20
11.088381
 30
0.0
 10
73.854022
 20
10.828759
 30
0.0
  0
SPLINE
  5
148
100
AcDbEntity
  8
Layer_1
 62
7
100
AcDbSpline
 70
0
 71
3
 72
10
 73
6
 74
4
 40
0.000000
 40
0.000000
 40
0.000000
 40
0.000000
 40
0.261904
 40
0.562605
 40
0.985492
 40
0.985492
 40
0.985492
 40
0.985492
 10
71.877916
 20
9.191097
 30
0.0
 10
71.824377
 20
9.260759
 30
0.0
 10
71.709368
 20
9.410404
 30
0.0
 10
71.607205
 20
9.727994
 30
0.0
 10
71.571759
 20
9.966295
 30
0.0
 10
71.551044
 20
10.105565
 30
0.0
 11
71.877916
 21
9.191097
 31
0.0
 11
71.729583
 21
9.406947
 31
0.0
 11
71.626705
 21
9.689501
 31
0.0
 11
71.551044
 21
10.105565
 31
0.0
  0
LWPOLYLINE
  5
149
100
AcDbEntity
  8
Layer_1
 62
7
100
AcDbPolyline
 90
2
 70
0
 10
71.551044
 20
10.105565
 30
0.0
 10
70.352152
 20
10.105565
 30
0.0
  0
SPLINE
  5
14a
100
AcDbEntity
  8
Layer_1
 62
7
100
AcDbSpline
 70
0
 71
3
 72
16
 73
12
 74
10
 40
0.000000
 40
0.000000
 40
0.000000
 40
0.000000
 40
1.411125
 40
2.654727
 40
4.233214
 40
5.820832
 40
7.105775
 40
8.359862
 40
9.297374
 40
10.219046
 40
11.450006
 40
11.450006
 40
11.450006
 40
11.450006
 10
70.352152
 20
10.105565
 30
0.0
 10
70.407073
 20
9.620679
 30
0.0
 10
70.510396
 20
8.708472
 30
0.0
 10
71.707249
 20
7.744998
 30
0.0
 10
73.206070
 20
7.604413
 30
0.0
 10
74.700634
 20
7.786715
 30
0.0
 10
75.898141
 20
8.633045
 30
0.0
 10
76.226422
 20
9.818788
 30
0.0
 10
76.029753
 20
10.886315
 30
0.0
 10
75.223288
 20
11.622202
 30
0.0
 10
74.525401
 20
11.812466
 30
0.0
 10
74.126321
 20
11.921267
 30
0.0
 11
70.352152
 21
10.105565
 31
0.0
 11
70.699794
 21
8.737932
 31
0.0
 11
71.643893
 21
7.928474
 31
0.0
 11
73.199729
 21
7.662025
 31
0.0
 11
74.762263
 21
7.943129
 31
0.0
 11
75.779796
 21
8.727799
 31
0.0
 11
76.143220
 21
9.928072
 31
0.0
 11
75.935238
 21
10.842223
 31
0.0
 11
75.279057
 21
11.489452
 31
0.0
 11
74.126321
 21
11.921267
 31
0.0
  0
LWPOLYLINE
  5
14b
100
AcDbEntity
  8
Layer_1
 62
7
100
AcDbPolyline
 90
2
 70
0
 10
74.126321
 20
11.921267
 30
0.0
 10
73.036571
 20
12.180338
 30
0.0
  0
SPLINE
  5
14c
100
AcDbEntity
  8
Layer_1
 62
7
100
AcDbSpline
 70
0
 71
3
 72
16
 73
12
 74
10
 40
0.000000
 40
0.000000
 40
0.000000
 40
0.000000
 40
0.794960
 40
1.338831
 40
1.801006
 40
2.407141
 40
3.047534
 40
3.862072
 40
4.643577
 40
5.258845
 40
5.914979
 40
5.914979
 40
5.914979
 40
5.914979
 10
73.036571
 20
12.180338
 30
0.0
 10
72.781052
 20
12.246873
 30
0.0
 10
72.350720
 20
12.358927
 30
0.0
 10
71.817803
 20
12.703303
 30
0.0
 10
71.658299
 20
13.253400
 30
0.0
 10
71.849988
 20
13.838293
 30
0.0
 10
72.464710
 20
14.227354
 30
0.0
 10
73.215576
 20
14.310805
 30
0.0
 10
73.961328
 20
14.237115
 30
0.0
 10
74.561870
 20
13.796372
 30
0.0
 10
74.625076
 20
13.360887
 30
0.0
 10
74.657695
 20
13.136146
 30
0.0
 11
73.036571
 21
12.180338
 31
0.0
 11
72.282062
 21
12.430693
 31
0.0
 11
71.851540
 21
12.763027
 31
0.0
 11
71.714755
 21
13.204497
 31
0.0
 11
71.900987
 21
13.781314
 31
0.0
 11
72.423337
 21
14.151791
 31
0.0
 11
73.227291
 21
14.282674
 31
0.0
 11
73.997840
 21
14.152271
 31
0.0
 11
74.477617
 21
13.767085
 31
0.0
 11
74.657695
 21
13.136146
 31
0.0
  0
LWPOLYLINE
  5
14d
100
AcDbEntity
  8
Layer_1
 62
7
100
AcDbPolyline
 90
2
 70
0
 10
74.657695
 20
13.136146
 30
0.0
 10
75.857140
 20
13.136146
 30
0.0
  0
SPLINE
  5
14e
100
AcDbEntity
  8
Layer_1
 62
7
100
AcDbSpline
 70
0
 71
3
 72
10
 73
6
 74
4
 40
0.000000
 40
0.000000
 40
0.000000
 40
0.000000
 40
1.234474
 40
2.385768
 40
3.810207
 40
3.810207
 40
3.810207
 40
3.810207
 10
75.857140
 20
13.136146
 30
0.0
 10
75.805331
 20
13.558645
 30
0.0
 10
75.705206
 20
14.375175
 30
0.0
 10
74.617955
 20
15.244893
 30
0.0
 10
73.748764
 20
15.302167
 30
0.0
 10
73.268081
 20
15.333841
 30
0.0
 11
75.857140
 21
13.136146
 31
0.0
 11
75.546252
 21
14.330831
 31
0.0
 11
74.669086
 21
15.076525
 31
0.0
 11
73.268081
 21
15.333841
 31
0.0
  0
LWPOLYLINE
  5
14f
100
AcDbEntity
  8
Layer_1
 62
7
100
AcDbPolyline
 90
2
 70
0
 10
73.268081
 20
15.333841
 30
0.0
 10
73.268081
 20
15.333841
 30
0.0
  0
SPLINE
  5
150
100
AcDbEntity
  8
Layer_1
 62
7
100
AcDbSpline
 70
0
 71
3
 72
10
 73
6
 74
4
 40
0.000000
 40
0.000000
 40
0.000000
 40
0.000000
 40
0.913335
 40
1.788598
 40
2.724512
 40
2.724512
 40
2.724512
 40
2.724512
 10
83.940709
 20
15.333841
 30
0.0
 10
83.634857
 20
15.307806
 30
0.0
 10
83.035902
 20
15.256822
 30
0.0
 10
82.215497
 20
14.790662
 30
0.0
 10
81.852743
 20
14.302741
 30
0.0
 10
81.665293
 20
14.050611
 30
0.0
 11
83.940709
 21
15.333841
 31
0.0
 11
83.038895
 21
15.189233
 31
0.0
 11
82.276410
 21
14.759462
 31
0.0
 11
81.665293
 21
14.050611
 31
0.0
  0
LWPOLYLINE
  5
151
100
AcDbEntity
  8
Layer_1
 62
7
100
AcDbPolyline
 90
6
 70
0
 10
81.665293
 20
14.050611
 30
0.0
 10
81.665293
 20
15.129340
 30
0.0
 10
80.615779
 20
15.129340
 30
0.0
 10
80.615779
 20
5.000207
 30
0.0
 10
81.760653
 20
5.000207
 30
0.0
 10
81.760653
 20
8.726974
 30
0.0
  0
SPLINE
  5
152
100
AcDbEntity
  8
Layer_1
 62
7
100
AcDbSpline
 70
0
 71
3
 72
16
 73
12
 74
10
 40
0.000000
 40
0.000000
 40
0.000000
 40
0.000000
 40
0.872090
 40
1.669627
 40
2.524388
 40
4.206350
 40
5.888029
 40
7.913870
 40
10.027248
 40
11.737531
 40
13.442643
 40
13.442643
 40
13.442643
 40
13.442643
 10
81.760653
 20
8.726974
 30
0.0
 10
81.957844
 20
8.510315
 30
0.0
 10
82.335369
 20
8.095519
 30
0.0
 10
83.115423
 20
7.724702
 30
0.0
 10
84.227117
 20
7.591792
 30
0.0
 10
85.680100
 20
7.969355
 30
0.0
 10
86.826465
 20
9.495046
 30
0.0
 10
87.101901
 20
11.463211
 30
0.0
 10
86.840715
 20
13.417265
 30
0.0
 10
85.694074
 20
15.063924
 30
0.0
 10
84.524574
 20
15.243960
 30
0.0
 10
83.940709
 20
15.333841
 30
0.0
 11
81.760653
 21
8.726974
 31
0.0
 11
82.389986
 21
8.123251
 31
0.0
 11
83.107137
 21
7.774311
 31
0.0
 11
83.954490
 21
7.662025
 31
0.0
 11
85.569401
 21
8.132194
 31
0.0
 11
86.627106
 21
9.439598
 31
0.0
 11
87.006571
 21
11.429582
 31
0.0
 11
86.632617
 21
13.509612
 31
0.0
 11
85.577361
 21
14.855533
 31
0.0
 11
83.940709
 21
15.333841
 31
0.0
  0
SPLINE
  5
153
100
AcDbEntity
  8
Layer_1
 62
7
100
AcDbSpline
 70
0
 71
3
 72
10
 73
6
 74
4
 40
0.000000
 40
0.000000
 40
0.000000
 40
0.000000
 40
0.976845
 40
1.824684
 40
2.575823
 40
2.575823
 40
2.575823
 40
2.575823
 10
94.390097
 20
15.333841
 30
0.0
 10
94.064823
 20
15.316363
 30
0.0
 10
93.457232
 20
15.283715
 30
0.0
 10
92.618572
 20
15.015041
 30
0.0
 10
92.210852
 20
14.665267
 30
0.0
 10
92.019320
 20
14.500956
 30
0.0
 11
94.390097
 21
15.333841
 31
0.0
 11
93.418142
 21
15.236217
 31
0.0
 11
92.618827
 21
14.953506
 31
0.0
 11
92.019320
 21
14.500956
 31
0.0
  0
LWPOLYLINE
  5
154
100
AcDbEntity
  8
Layer_1
 62
7
100
AcDbPolyline
 90
2
 70
0
 10
83.940709
 20
15.333841
 30
0.0
 10
83.940709
 20
15.333841
 30
0.0
  0
SPLINE
  5
155
100
AcDbEntity
  8
Layer_1
 62
7
100
AcDbSpline
 70
0
 71
3
 72
10
 73
6
 74
4
 40
0.000000
 40
0.000000
 40
0.000000
 40
0.000000
 40
0.473814
 40
0.975816
 40
1.598682
 40
1.598682
 40
1.598682
 40
1.598682
 10
92.019320
 20
14.500956
 30
0.0
 10
91.922253
 20
14.374947
 30
0.0
 10
91.722344
 20
14.115434
 30
0.0
 10
91.566628
 20
13.594716
 30
0.0
 10
91.542242
 20
13.220459
 30
0.0
 10
91.528739
 20
13.013224
 30
0.0
 11
92.019320
 21
14.500956
 31
0.0
 11
91.752842
 21
14.109180
 31
0.0
 11
91.595365
 21
13.632516
 31
0.0
 11
91.528739
 21
13.013224
 31
0.0
  0
LWPOLYLINE
  5
156
100
AcDbEntity
  8
Layer_1
 62
7
100
AcDbPolyline
 90
2
 70
0
 10
91.528739
 20
13.013224
 30
0.0
 10
92.673613
 20
13.013224
 30
0.0
  0
SPLINE
  5
157
100
AcDbEntity
  8
Layer_1
 62
7
100
AcDbSpline
 70
0
 71
3
 72
13
 73
9
 74
7
 40
0.000000
 40
0.000000
 40
0.000000
 40
0.000000
 40
0.756696
 40
1.446494
 40
2.342339
 40
3.224851
 40
3.872511
 40
4.480266
 40
4.480266
 40
4.480266
 40
4.480266
 10
92.673613
 20
13.013224
 30
0.0
 10
92.723505
 20
13.269770
 30
0.0
 10
92.818879
 20
13.760183
 30
0.0
 10
93.511596
 20
14.245271
 30
0.0
 10
94.348676
 20
14.304906
 30
0.0
 10
95.150552
 20
14.242272
 30
0.0
 10
95.835476
 20
13.859637
 30
0.0
 10
95.908582
 20
13.427113
 30
0.0
 10
95.943973
 20
13.217725
 30
0.0
 11
92.673613
 21
13.013224
 31
0.0
 11
92.914257
 21
13.730636
 31
0.0
 11
93.463688
 21
14.147705
 31
0.0
 11
94.349308
 21
14.282674
 31
0.0
 11
95.223005
 21
14.158255
 31
0.0
 11
95.760674
 21
13.797180
 31
0.0
 11
95.943973
 21
13.217725
 31
0.0
  0
SPLINE
  5
158
100
AcDbEntity
  8
Layer_1
 62
7
100
AcDbSpline
 70
0
 71
3
 72
10
 73
6
 74
4
 40
0.000000
 40
0.000000
 40
0.000000
 40
0.000000
 40
0.410799
 40
0.847789
 40
1.579665
 40
1.579665
 40
1.579665
 40
1.579665
 10
95.943973
 20
12.917864
 30
0.0
 10
95.926890
 20
12.773907
 30
0.0
 10
95.891633
 20
12.476816
 30
0.0
 10
95.379202
 20
12.204165
 30
0.0
 10
94.997383
 20
12.155954
 30
0.0
 10
94.758310
 20
12.125768
 30
0.0
 11
95.943973
 21
12.917864
 31
0.0
 11
95.836429
 21
12.521392
 31
0.0
 11
95.474491
 21
12.276522
 31
0.0
 11
94.758310
 21
12.125768
 31
0.0
  0
SPLINE
  5
159
100
AcDbEntity
  8
Layer_1
 62
7
100
AcDbSpline
 70
0
 71
3
 72
10
 73
6
 74
4
 40
0.000000
 40
0.000000
 40
0.000000
 40
0.000000
 40
1.222372
 40
1.882366
 40
2.336635
 40
2.336635
 40
2.336635
 40
2.336635
 10
94.758310
 20
12.125768
 30
0.0
 10
94.354766
 20
12.073036
 30
0.0
 10
93.733337
 20
11.991834
 30
0.0
 10
92.960212
 20
11.871726
 30
0.0
 10
92.611342
 20
11.742067
 30
0.0
 10
92.469112
 20
11.689207
 30
0.0
 11
94.758310
 21
12.125768
 31
0.0
 11
93.547091
 21
11.961014
 31
0.0
 11
92.899093
 21
11.835757
 31
0.0
 11
92.469112
 21
11.689207
 31
0.0
  0
SPLINE
  5
15a
100
AcDbEntity
  8
Layer_1
 62
7
100
AcDbSpline
 70
0
 71
3
 72
16
 73
12
 74
10
 40
0.000000
 40
0.000000
 40
0.000000
 40
0.000000
 40
0.825789
 40
1.586451
 40
2.427384
 40
3.588333
 40
4.677353
 40
5.953795
 40
6.810562
 40
7.670849
 40
8.659976
 40
8.659976
 40
8.659976
 40
8.659976
 10
92.469112
 20
11.689207
 30
0.0
 10
92.221610
 20
11.559876
 30
0.0
 10
91.746126
 20
11.311414
 30
0.0
 10
91.290283
 20
10.598449
 30
0.0
 10
91.158067
 20
9.674396
 30
0.0
 10
91.379970
 20
8.611654
 30
0.0
 10
92.322995
 20
7.788994
 30
0.0
 10
93.422162
 20
7.614061
 30
0.0
 10
94.420167
 20
7.728830
 30
0.0
 10
95.260768
 20
8.098726
 30
0.0
 10
95.732479
 20
8.499074
 30
0.0
 10
95.984766
 20
8.713193
 30
0.0
 11
92.469112
 21
11.689207
 31
0.0
 11
91.774717
 21
11.242282
 31
0.0
 11
91.355910
 21
10.607295
 31
0.0
 11
91.215650
 21
9.778142
 31
0.0
 11
91.502320
 21
8.653142
 31
0.0
 11
92.309827
 21
7.922460
 31
0.0
 11
93.559418
 21
7.662025
 31
0.0
 11
94.409260
 21
7.770738
 31
0.0
 11
95.198513
 21
8.113044
 31
0.0
 11
95.984766
 21
8.713193
 31
0.0
  0
LWPOLYLINE
  5
15b
100
AcDbEntity
  8
Layer_1
 62
7
100
AcDbPolyline
 90
2
 70
0
 10
95.943973
 20
13.217725
 30
0.0
 10
95.943973
 20
12.917864
 30
0.0
  0
SPLINE
  5
15c
100
AcDbEntity
  8
Layer_1
 62
7
100
AcDbSpline
 70
0
 71
3
 72
13
 73
9
 74
7
 40
0.000000
 40
0.000000
 40
0.000000
 40
0.000000
 40
0.625604
 40
1.138949
 40
1.761203
 40
1.987034
 40
2.224742
 40
2.549778
 40
2.549778
 40
2.549778
 40
2.549778
 10
95.984766
 20
8.713193
 30
0.0
 10
96.019110
 20
8.501777
 30
0.0
 10
96.081636
 20
8.116881
 30
0.0
 10
96.555587
 20
7.696474
 30
0.0
 10
97.025716
 20
7.654671
 30
0.0
 10
97.386486
 20
7.667770
 30
0.0
 10
97.646269
 20
7.713380
 30
0.0
 10
97.828218
 20
7.758745
 30
0.0
 10
97.933310
 20
7.784947
 30
0.0
 11
95.984766
 21
8.713193
 31
0.0
 11
96.161408
 21
8.113044
 31
0.0
 11
96.543965
 21
7.770738
 31
0.0
 11
97.156648
 21
7.662025
 31
0.0
 11
97.382229
 21
7.672663
 31
0.0
 11
97.616887
 21
7.710616
 31
0.0
 11
97.933310
 21
7.784947
 31
0.0
  0
LWPOLYLINE
  5
15d
100
AcDbEntity
  8
Layer_1
 62
7
100
AcDbPolyline
 90
2
 70
0
 10
97.933310
 20
7.784947
 30
0.0
 10
97.933310
 20
8.644844
 30
0.0
  0
SPLINE
  5
15e
100
AcDbEntity
  8
Layer_1
 62
7
100
AcDbSpline
 70
0
 71
3
 72
13
 73
9
 74
7
 40
0.000000
 40
0.000000
 40
0.000000
 40
0.000000
 40
0.104748
 40
0.180800
 40
0.247430
 40
0.588622
 40
0.870548
 40
1.181751
 40
1.181751
 40
1.181751
 40
1.181751
 10
97.933310
 20
8.644844
 30
0.0
 10
97.899117
 20
8.637666
 30
0.0
 10
97.840098
 20
8.625277
 30
0.0
 10
97.757779
 20
8.617532
 30
0.0
 10
97.596756
 20
8.615832
 30
0.0
 10
97.360585
 20
8.644205
 30
0.0
 10
97.105900
 20
8.867487
 30
0.0
 10
97.085316
 20
9.070696
 30
0.0
 10
97.074516
 20
9.177316
 30
0.0
 11
97.933310
 21
8.644844
 31
0.0
 11
97.830351
 21
8.625569
 31
0.0
 11
97.754641
 21
8.618364
 31
0.0
 11
97.688019
 21
8.617283
 31
0.0
 11
97.353335
 21
8.683604
 31
0.0
 11
97.145758
 21
8.874377
 31
0.0
 11
97.074516
 21
9.177316
 31
0.0
  0
LWPOLYLINE
  5
15f
100
AcDbEntity
  8
Layer_1
 62
7
100
AcDbPolyline
 90
2
 70
0
 10
97.074516
 20
9.177316
 30
0.0
 10
97.074516
 20
13.381987
 30
0.0
  0
SPLINE
  5
160
100
AcDbEntity
  8
Layer_1
 62
7
100
AcDbSpline
 70
0
 71
3
 72
10
 73
6
 74
4
 40
0.000000
 40
0.000000
 40
0.000000
 40
0.000000
 40
1.112982
 40
2.229182
 40
3.723256
 40
3.723256
 40
3.723256
 40
3.723256
 10
97.074516
 20
13.381987
 30
0.0
 10
97.021173
 20
13.765999
 30
0.0
 10
96.914334
 20
14.535133
 30
0.0
 10
95.762251
 20
15.271974
 30
0.0
 10
94.889591
 20
15.311320
 30
0.0
 10
94.390097
 20
15.333841
 30
0.0
 11
97.074516
 21
13.381987
 31
0.0
 11
96.769175
 21
14.452266
 31
0.0
 11
95.867296
 21
15.109926
 31
0.0
 11
94.390097
 21
15.333841
 31
0.0
  0
LWPOLYLINE
  5
161
100
AcDbEntity
  8
Layer_1
 62
7
100
AcDbPolyline
 90
2
 70
0
 10
94.390097
 20
15.333841
 30
0.0
 10
94.390097
 20
15.333841
 30
0.0
  0
SPLINE
  5
162
100
AcDbEntity
  8
Layer_1
 62
7
100
AcDbSpline
 70
0
 71
3
 72
16
 73
12
 74
10
 40
0.000000
 40
0.000000
 40
0.000000
 40
0.000000
 40
1.751427
 40
3.493569
 40
5.598509
 40
7.638181
 40
9.337041
 40
11.079526
 40
12.598542
 40
13.971513
 40
15.529353
 40
15.529353
 40
15.529353
 40
15.529353
 10
105.003750
 20
15.333841
 30
0.0
 10
104.405342
 20
15.242685
 30
0.0
 10
103.211699
 20
15.060855
 30
0.0
 10
102.013677
 20
13.424706
 30
0.0
 10
101.728495
 20
11.456176
 30
0.0
 10
102.010694
 20
9.476054
 30
0.0
 10
103.217069
 20
7.948248
 30
0.0
 10
104.917809
 20
7.545735
 30
0.0
 10
106.484610
 20
7.838868
 30
0.0
 10
107.647103
 20
8.923554
 30
0.0
 10
107.816080
 20
9.909119
 30
0.0
 10
107.905897
 20
10.432985
 30
0.0
 11
105.003750
 21
15.333841
 31
0.0
 11
103.320634
 21
14.849466
 31
0.0
 11
102.221914
 21
13.497478
 31
0.0
 11
101.828750
 21
11.429582
 31
0.0
 11
102.218341
 21
9.427463
 31
0.0
 11
103.310426
 21
8.126127
 31
0.0
 11
104.989969
 21
7.662025
 31
0.0
 11
106.472684
 21
7.992126
 31
0.0
 11
107.467862
 21
8.937996
 31
0.0
 11
107.905897
 21
10.432985
 31
0.0
  0
LWPOLYLINE
  5
163
100
AcDbEntity
  8
Layer_1
 62
7
100
AcDbPolyline
 90
2
 70
0
 10
107.905897
 20
10.432985
 30
0.0
 10
106.761574
 20
10.432985
 30
0.0
  0
SPLINE
  5
164
100
AcDbEntity
  8
Layer_1
 62
7
100
AcDbSpline
 70
0
 71
3
 72
19
 73
15
 74
13
 40
0.000000
 40
0.000000
 40
0.000000
 40
0.000000
 40
1.008338
 40
1.825664
 40
2.687013
 40
3.812251
 40
4.969052
 40
6.445362
 40
7.997983
 40
9.185283
 40
10.302307
 40
11.153644
 40
11.931347
 40
12.824889
 40
12.824889
 40
12.824889
 40
12.824889
 10
106.761574
 20
10.432985
 30
0.0
 10
106.686597
 20
10.100126
 30
0.0
 10
106.550848
 20
9.497464
 30
0.0
 10
105.882235
 20
8.818243
 30
0.0
 10
104.928632
 20
8.637034
 30
0.0
 10
103.847767
 20
8.931359
 30
0.0
 10
103.110977
 20
10.047871
 30
0.0
 10
102.960836
 20
11.456541
 30
0.0
 10
103.107495
 20
12.867991
 30
0.0
 10
103.815228
 20
14.044208
 30
0.0
 10
104.902682
 20
14.360424
 30
0.0
 10
105.830486
 20
14.183446
 30
0.0
 10
106.491502
 20
13.578591
 30
0.0
 10
106.613967
 20
13.023420
 30
0.0
 10
106.679444
 20
12.726593
 30
0.0
 11
106.761574
 21
10.432985
 31
0.0
 11
106.439477
 21
9.477475
 31
0.0
 11
105.856871
 21
8.904246
 31
0.0
 11
105.016977
 21
8.713193
 31
0.0
 11
103.940632
 21
9.041281
 31
0.0
 11
103.255015
 21
9.973010
 31
0.0
 11
103.014413
 21
11.429582
 31
0.0
 11
103.251041
 21
12.964065
 31
0.0
 11
103.926682
 21
13.940380
 31
0.0
 11
104.989969
 21
14.282674
 31
0.0
 11
105.821628
 21
14.100696
 31
0.0
 11
106.392835
 21
13.572922
 31
0.0
 11
106.679444
 21
12.726593
 31
0.0
  0
SPLINE
  5
165
100
AcDbEntity
  8
Layer_1
 62
7
100
AcDbSpline
 70
0
 71
3
 72
10
 73
6
 74
4
 40
0.000000
 40
0.000000
 40
0.000000
 40
0.000000
 40
0.627406
 40
1.151354
 40
1.632427
 40
1.632427
 40
1.632427
 40
1.632427
 10
107.824318
 20
12.726593
 30
0.0
 10
107.802031
 20
12.934642
 30
0.0
 10
107.761131
 20
13.316432
 30
0.0
 10
107.605656
 20
13.844187
 30
0.0
 10
107.431079
 20
14.131409
 30
0.0
 10
107.347515
 20
14.268893
 30
0.0
 11
107.824318
 21
12.726593
 31
0.0
 11
107.737039
 21
13.347899
 31
0.0
 11
107.580140
 21
13.847803
 31
0.0
 11
107.347515
 21
14.268893
 31
0.0
  0
LWPOLYLINE
  5
166
100
AcDbEntity
  8
Layer_1
 62
7
100
AcDbPolyline
 90
2
 70
0
 10
106.679444
 20
12.726593
 30
0.0
 10
107.824318
 20
12.726593
 30
0.0
  0
SPLINE
  5
167
100
AcDbEntity
  8
Layer_1
 62
7
100
AcDbSpline
 70
0
 71
3
 72
10
 73
6
 74
4
 40
0.000000
 40
0.000000
 40
0.000000
 40
0.000000
 40
0.833265
 40
1.710791
 40
2.660115
 40
2.660115
 40
2.660115
 40
2.660115
 10
107.347515
 20
14.268893
 30
0.0
 10
107.157855
 20
14.474855
 30
0.0
 10
106.768460
 20
14.897720
 30
0.0
 10
105.929432
 20
15.263563
 30
0.0
 10
105.320291
 20
15.309809
 30
0.0
 10
105.003750
 20
15.333841
 30
0.0
 11
107.347515
 21
14.268893
 31
0.0
 11
106.742901
 21
14.842280
 31
0.0
 11
105.944479
 21
15.206388
 31
0.0
 11
105.003750
 21
15.333841
 31
0.0
  0
LWPOLYLINE
  5
168
100
AcDbEntity
  8
Layer_1
 62
7
100
AcDbPolyline
 90
2
 70
0
 10
105.003750
 20
15.333841
 30
0.0
 10
105.003750
 20
15.333841
 30
0.0
  0
SPLINE
  5
169
100
AcDbEntity
  8
Layer_1
 62
7
100
AcDbSpline
 70
0
 71
3
 72
16
 73
12
 74
10
 40
0.000000
 40
0.000000
 40
0.000000
 40
0.000000
 40
1.797415
 40
3.553235
 40
5.647602
 40
7.718709
 40
9.432252
 40
11.229070
 40
12.713760
 40
14.059124
 40
15.505610
 40
15.505610
 40
15.505610
 40
15.505610
 10
115.212808
 20
15.333841
 30
0.0
 10
114.599029
 20
15.245699
 30
0.0
 10
113.385674
 20
15.071455
 30
0.0
 10
112.135882
 20
13.453844
 30
0.0
 10
111.841748
 20
11.469536
 30
0.0
 10
112.118354
 20
9.473728
 30
0.0
 10
113.365803
 20
7.929900
 30
0.0
 10
115.087917
 20
7.552752
 30
0.0
 10
116.637334
 20
7.828119
 30
0.0
 10
117.829108
 20
8.762768
 30
0.0
 10
118.098368
 20
9.674155
 30
0.0
 10
118.237875
 20
10.146354
 30
0.0
 11
115.212808
 21
15.333841
 31
0.0
 11
113.480744
 21
14.853578
 31
0.0
 11
112.348221
 21
13.511825
 31
0.0
 11
111.942445
 21
11.457144
 31
0.0
 11
112.335162
 21
9.423611
 31
0.0
 11
113.448624
 21
8.121138
 31
0.0
 11
115.185797
 21
7.662025
 31
0.0
 11
116.640219
 21
7.960284
 31
0.0
 11
117.682783
 21
8.810616
 31
0.0
 11
118.237875
 21
10.146354
 31
0.0
  0
SPLINE
  5
16a
100
AcDbEntity
  8
Layer_1
 62
7
100
AcDbSpline
 70
0
 71
3
 72
13
 73
9
 74
7
 40
0.000000
 40
0.000000
 40
0.000000
 40
0.000000
 40
0.895082
 40
1.684674
 40
2.520710
 40
3.210436
 40
3.870995
 40
4.552171
 40
4.552171
 40
4.552171
 40
4.552171
 10
117.093554
 20
10.146354
 30
0.0
 10
116.976715
 20
9.867197
 30
0.0
 10
116.756808
 20
9.341782
 30
0.0
 10
116.057140
 20
8.806238
 30
0.0
 10
115.273790
 20
8.672523
 30
0.0
 10
114.545060
 20
8.780685
 30
0.0
 10
113.925037
 20
9.101716
 30
0.0
 10
113.649458
 20
9.459699
 30
0.0
 10
113.509552
 20
9.641442
 30
0.0
 11
117.093554
 21
10.146354
 31
0.0
 11
116.673114
 21
9.356163
 31
0.0
 11
116.046729
 21
8.875438
 31
0.0
 11
115.226586
 21
8.713193
 31
0.0
 11
114.545239
 21
8.820374
 31
0.0
 11
113.963792
 21
9.133832
 31
0.0
 11
113.509552
 21
9.641442
 31
0.0
  0
LWPOLYLINE
  5
16b
100
AcDbEntity
  8
Layer_1
 62
7
100
AcDbPolyline
 90
2
 70
0
 10
118.237875
 20
10.146354
 30
0.0
 10
117.093554
 20
10.146354
 30
0.0
  0
SPLINE
  5
16c
100
AcDbEntity
  8
Layer_1
 62
7
100
AcDbSpline
 70
0
 71
3
 72
10
 73
6
 74
4
 40
0.000000
 40
0.000000
 40
0.000000
 40
0.000000
 40
0.473358
 40
0.975393
 40
1.597885
 40
1.597885
 40
1.597885
 40
1.597885
 10
113.509552
 20
9.641442
 30
0.0
 10
113.429840
 20
9.778573
 30
0.0
 10
113.265586
 20
10.061144
 30
0.0
 10
113.150580
 20
10.588745
 30
0.0
 10
113.136117
 20
10.963218
 30
0.0
 10
113.128112
 20
11.170510
 30
0.0
 11
113.509552
 21
9.641442
 31
0.0
 11
113.292566
 21
10.062137
 31
0.0
 11
113.172498
 21
10.549603
 31
0.0
 11
113.128112
 21
11.170510
 31
0.0
  0
SPLINE
  5
16d
100
AcDbEntity
  8
Layer_1
 62
7
100
AcDbSpline
 70
0
 71
3
 72
10
 73
6
 74
4
 40
0.000000
 40
0.000000
 40
0.000000
 40
0.000000
 40
0.958416
 40
1.700616
 40
2.308305
 40
2.308305
 40
2.308305
 40
2.308305
 10
118.387808
 20
11.170510
 30
0.0
 10
118.383391
 20
11.489755
 30
0.0
 10
118.375553
 20
12.056223
 30
0.0
 10
118.298683
 20
12.826186
 30
0.0
 10
118.162867
 20
13.256204
 30
0.0
 10
118.101725
 20
13.449788
 30
0.0
 11
118.387808
 21
11.170510
 31
0.0
 11
118.359059
 21
12.128496
 31
0.0
 11
118.266735
 21
12.864931
 31
0.0
 11
118.101725
 21
13.449788
 31
0.0
  0
LWPOLYLINE
  5
16e
100
AcDbEntity
  8
Layer_1
 62
7
100
AcDbPolyline
 90
2
 70
0
 10
113.128112
 20
11.170510
 30
0.0
 10
118.387808
 20
11.170510
 30
0.0
  0
SPLINE
  5
16f
100
AcDbEntity
  8
Layer_1
 62
7
100
AcDbSpline
 70
0
 71
3
 72
10
 73
6
 74
4
 40
0.000000
 40
0.000000
 40
0.000000
 40
0.000000
 40
1.205700
 40
2.389013
 40
3.649253
 40
3.649253
 40
3.649253
 40
3.649253
 10
118.101725
 20
13.449788
 30
0.0
 10
117.910021
 20
13.808458
 30
0.0
 10
117.530173
 20
14.519137
 30
0.0
 10
116.452032
 20
15.210236
 30
0.0
 10
115.634462
 20
15.291784
 30
0.0
 10
115.212808
 20
15.333841
 30
0.0
 11
118.101725
 21
13.449788
 31
0.0
 11
117.443588
 21
14.460020
 31
0.0
 11
116.452331
 21
15.106270
 31
0.0
 11
115.212808
 21
15.333841
 31
0.0
  0
LWPOLYLINE
  5
170
100
AcDbEntity
  8
Layer_1
 62
7
100
AcDbPolyline
 90
2
 70
0
 10
115.212808
 20
15.333841
 30
0.0
 10
115.212808
 20
15.333841
 30
0.0
  0
SPLINE
  5
171
100
AcDbEntity
  8
Layer_1
 62
7
100
AcDbSpline
 70
0
 71
3
 72
10
 73
6
 74
4
 40
0.000000
 40
0.000000
 40
0.000000
 40
0.000000
 40
1.061405
 40
2.090910
 40
3.254886
 40
3.254886
 40
3.254886
 40
3.254886
 10
55.198140
 20
14.282674
 30
0.0
 10
55.557473
 20
14.229512
 30
0.0
 10
56.265341
 20
14.124788
 30
0.0
 10
57.038149
 20
13.227409
 30
0.0
 10
57.118062
 20
12.490044
 30
0.0
 10
57.160468
 20
12.098759
 30
0.0
 11
55.198140
 21
14.282674
 31
0.0
 11
56.221660
 21
14.001628
 31
0.0
 11
56.909100
 21
13.235269
 31
0.0
 11
57.160468
 21
12.098759
 31
0.0
  0
LWPOLYLINE
  5
172
100
AcDbEntity
  8
Layer_1
 62
7
100
AcDbPolyline
 90
2
 70
0
 10
57.160468
 20
12.098759
 30
0.0
 10
53.154236
 20
12.098759
 30
0.0
  0
SPLINE
  5
173
100
AcDbEntity
  8
Layer_1
 62
7
100
AcDbSpline
 70
0
 71
3
 72
10
 73
6
 74
4
 40
0.000000
 40
0.000000
 40
0.000000
 40
0.000000
 40
1.197682
 40
2.234737
 40
3.287872
 40
3.287872
 40
3.287872
 40
3.287872
 10
53.154236
 20
12.098759
 30
0.0
 10
53.220756
 20
12.496925
 30
0.0
 10
53.344877
 20
13.239857
 30
0.0
 10
54.133828
 20
14.129103
 30
0.0
 10
54.841554
 20
14.231222
 30
0.0
 10
55.198140
 20
14.282674
 30
0.0
 11
53.154236
 21
12.098759
 31
0.0
 11
53.472172
 21
13.253470
 31
0.0
 11
54.180721
 21
14.010729
 31
0.0
 11
55.198140
 21
14.282674
 31
0.0
  0
LWPOLYLINE
  5
174
100
AcDbEntity
  8
Layer_1
 62
7
100
AcDbPolyline
 90
2
 70
0
 10
55.198140
 20
14.282674
 30
0.0
 10
55.198140
 20
14.282674
 30
0.0
  0
SPLINE
  5
175
100
AcDbEntity
  8
Layer_1
 62
7
100
AcDbSpline
 70
0
 71
3
 72
10
 73
6
 74
4
 40
0.000000
 40
0.000000
 40
0.000000
 40
0.000000
 40
1.061405
 40
2.090909
 40
3.254885
 40
3.254885
 40
3.254885
 40
3.254885
 10
115.199027
 20
14.282674
 30
0.0
 10
115.558361
 20
14.229513
 30
0.0
 10
116.266229
 20
14.124789
 30
0.0
 10
117.039035
 20
13.227408
 30
0.0
 10
117.118947
 20
12.490044
 30
0.0
 10
117.161352
 20
12.098759
 30
0.0
 11
115.199027
 21
14.282674
 31
0.0
 11
116.222548
 21
14.001628
 31
0.0
 11
116.909986
 21
13.235269
 31
0.0
 11
117.161352
 21
12.098759
 31
0.0
  0
LWPOLYLINE
  5
176
100
AcDbEntity
  8
Layer_1
 62
7
100
AcDbPolyline
 90
2
 70
0
 10
117.161352
 20
12.098759
 30
0.0
 10
113.155120
 20
12.098759
 30
0.0
  0
SPLINE
  5
177
100
AcDbEntity
  8
Layer_1
 62
7
100
AcDbSpline
 70
0
 71
3
 72
10
 73
6
 74
4
 40
0.000000
 40
0.000000
 40
0.000000
 40
0.000000
 40
1.197682
 40
2.234738
 40
3.287874
 40
3.287874
 40
3.287874
 40
3.287874
 10
113.155120
 20
12.098759
 30
0.0
 10
113.221641
 20
12.496925
 30
0.0
 10
113.345762
 20
13.239858
 30
0.0
 10
114.134715
 20
14.129103
 30
0.0
 10
114.842442
 20
14.231222
 30
0.0
 10
115.199027
 20
14.282674
 30
0.0
 11
113.155120
 21
12.098759
 31
0.0
 11
113.473058
 21
13.253470
 31
0.0
 11
114.181608
 21
14.010729
 31
0.0
 11
115.199027
 21
14.282674
 31
0.0
  0
LWPOLYLINE
  5
178
100
AcDbEntity
  8
Layer_1
 62
7
100
AcDbPolyline
 90
2
 70
0
 10
115.199027
 20
14.282674
 30
0.0
 10
115.199027
 20
14.282674
 30
0.0
  0
LWPOLYLINE
  5
179
100
AcDbEntity
  8
Layer_1
 62
7
100
AcDbPolyline
 90
2
 70
0
 10
83.749989
 20
14.268893
 30
0.0
 10
83.749989
 20
14.268893
 30
0.0
  0
SPLINE
  5
17a
100
AcDbEntity
  8
Layer_1
 62
7
100
AcDbSpline
 70
0
 71
3
 72
19
 73
15
 74
13
 40
0.000000
 40
0.000000
 40
0.000000
 40
0.000000
 40
1.148618
 40
2.359462
 40
3.869092
 40
5.322590
 40
6.518360
 40
7.660313
 40
8.770133
 40
9.952247
 40
11.437459
 40
12.922670
 40
14.104784
 40
15.214605
 40
15.214605
 40
15.214605
 40
15.214605
 10
83.749989
 20
14.268893
 30
0.0
 10
84.141908
 20
14.197848
 30
0.0
 10
84.946978
 20
14.051911
 30
0.0
 10
85.701892
 20
12.867106
 30
0.0
 10
85.888851
 20
11.479786
 30
0.0
 10
85.694127
 20
10.075922
 30
0.0
 10
84.934205
 20
8.978781
 30
0.0
 10
83.761716
 20
8.604462
 30
0.0
 10
82.589137
 20
8.978740
 30
0.0
 10
81.871597
 20
10.102993
 30
0.0
 10
81.698898
 20
11.501490
 30
0.0
 10
81.871523
 20
12.880098
 30
0.0
 10
82.589351
 20
14.051244
 30
0.0
 10
83.371332
 20
14.197885
 30
0.0
 10
83.749989
 20
14.268893
 30
0.0
 11
83.749989
 21
14.268893
 31
0.0
 11
84.844055
 21
13.919116
 31
0.0
 11
85.562582
 21
12.944507
 31
0.0
 11
85.820905
 21
11.457144
 31
0.0
 11
85.559554
 21
10.027335
 31
0.0
 11
84.838000
 21
9.073802
 31
0.0
 11
83.749989
 21
8.726974
 31
0.0
 11
82.695243
 21
9.072242
 31
0.0
 11
82.006911
 21
10.033279
 31
0.0
 11
81.760653
 21
11.497933
 31
0.0
 11
82.006910
 21
12.962587
 31
0.0
 11
82.695242
 21
13.923624
 31
0.0
 11
83.749989
 21
14.268893
 31
0.0
  0
SPLINE
  5
17b
100
AcDbEntity
  8
Layer_1
 62
7
100
AcDbSpline
 70
0
 71
3
 72
10
 73
6
 74
4
 40
0.000000
 40
0.000000
 40
0.000000
 40
0.000000
 40
0.343195
 40
0.667481
 40
1.066146
 40
1.066146
 40
1.066146
 40
1.066146
 10
25.951210
 20
10.228484
 30
0.0
 10
25.945748
 20
10.113160
 30
0.0
 10
25.935126
 20
9.888866
 30
0.0
 10
25.770833
 20
9.562068
 30
0.0
 10
25.597534
 20
9.393302
 30
0.0
 10
25.501969
 20
9.300238
 30
0.0
 11
25.951210
 21
10.228484
 31
0.0
 11
25.910441
 21
9.887719
 31
0.0
 11
25.769842
 21
9.595497
 31
0.0
 11
25.501969
 21
9.300238
 31
0.0
  0
SPLINE
  5
17c
100
AcDbEntity
  8
Layer_1
 62
7
100
AcDbSpline
 70
0
 71
3
 72
16
 73
12
 74
10
 40
0.000000
 40
0.000000
 40
0.000000
 40
0.000000
 40
0.609364
 40
1.211407
 40
1.847480
 40
2.617164
 40
3.235557
 40
3.876506
 40
4.533540
 40
5.231676
 40
6.253377
 40
6.253377
 40
6.253377
 40
6.253377
 10
25.501969
 20
9.300238
 30
0.0
 10
25.342561
 20
9.172640
 30
0.0
 10
25.025659
 20
8.918979
 30
0.0
 10
24.437112
 20
8.703094
 30
0.0
 10
23.769651
 20
8.632091
 30
0.0
 10
23.081811
 20
8.713875
 30
0.0
 10
22.506671
 20
9.152913
 30
0.0
 10
22.357922
 20
9.809364
 30
0.0
 10
22.514404
 20
10.501305
 30
0.0
 10
23.223037
 20
10.967394
 30
0.0
 10
23.789228
 20
11.060235
 30
0.0
 10
24.125585
 20
11.115390
 30
0.0
 11
25.501969
 21
9.300238
 31
0.0
 11
25.006281
 21
8.945811
 31
0.0
 11
24.443894
 21
8.730926
 31
0.0
 11
23.811943
 21
8.658623
 31
0.0
 11
23.054454
 21
8.795092
 31
0.0
 11
22.575569
 21
9.186345
 31
0.0
 11
22.408549
 21
9.805150
 31
0.0
 11
22.581181
 21
10.439099
 31
0.0
 11
23.135377
 21
10.863672
 31
0.0
 11
24.125585
 21
11.115390
 31
0.0
  0
LWPOLYLINE
  5
17d
100
AcDbEntity
  8
Layer_1
 62
7
100
AcDbPolyline
 90
2
 70
0
 10
25.951210
 20
11.511714
 30
0.0
 10
25.951210
 20
10.228484
 30
0.0
  0
LWPOLYLINE
  5
17e
100
AcDbEntity
  8
Layer_1
 62
7
100
AcDbPolyline
 90
2
 70
0
 10
25.951210
 20
11.511714
 30
0.0
 10
25.951210
 20
11.511714
 30
0.0
  0
SPLINE
  5
17f
100
AcDbEntity
  8
Layer_1
 62
7
100
AcDbSpline
 70
0
 71
3
 72
10
 73
6
 74
4
 40
0.000000
 40
0.000000
 40
0.000000
 40
0.000000
 40
0.937454
 40
1.474626
 40
1.875257
 40
1.875257
 40
1.875257
 40
1.875257
 10
24.125585
 20
11.115390
 30
0.0
 10
24.434730
 20
11.158002
 30
0.0
 10
24.921020
 20
11.225031
 30
0.0
 10
25.539684
 20
11.336333
 30
0.0
 10
25.828028
 20
11.459218
 30
0.0
 10
25.951210
 20
11.511714
 30
0.0
 11
24.125585
 21
11.115390
 31
0.0
 11
25.053103
 21
11.251508
 31
0.0
 11
25.577825
 21
11.366493
 31
0.0
 11
25.951210
 21
11.511714
 31
0.0
  0
SPLINE
  5
180
100
AcDbEntity
  8
Layer_1
 62
7
100
AcDbSpline
 70
0
 71
3
 72
10
 73
6
 74
4
 40
0.000000
 40
0.000000
 40
0.000000
 40
0.000000
 40
0.343212
 40
0.667613
 40
1.066375
 40
1.066375
 40
1.066375
 40
1.066375
 10
95.943973
 20
10.228484
 30
0.0
 10
95.938475
 20
10.113150
 30
0.0
 10
95.927779
 20
9.888805
 30
0.0
 10
95.763133
 20
9.562096
 30
0.0
 10
95.589774
 20
9.393309
 30
0.0
 10
95.494181
 20
9.300238
 30
0.0
 11
95.943973
 21
10.228484
 31
0.0
 11
95.903062
 21
9.887719
 31
0.0
 11
95.762197
 21
9.595497
 31
0.0
 11
95.494181
 21
9.300238
 31
0.0
  0
SPLINE
  5
181
100
AcDbEntity
  8
Layer_1
 62
7
100
AcDbSpline
 70
0
 71
3
 72
16
 73
12
 74
10
 40
0.000000
 40
0.000000
 40
0.000000
 40
0.000000
 40
0.609363
 40
1.211406
 40
1.847480
 40
2.617165
 40
3.235557
 40
3.876506
 40
4.533539
 40
5.231676
 40
6.253375
 40
6.253375
 40
6.253375
 40
6.253375
 10
95.494181
 20
9.300238
 30
0.0
 10
95.334773
 20
9.172640
 30
0.0
 10
95.017872
 20
8.918978
 30
0.0
 10
94.429325
 20
8.703094
 30
0.0
 10
93.761864
 20
8.632091
 30
0.0
 10
93.074024
 20
8.713875
 30
0.0
 10
92.498885
 20
9.152913
 30
0.0
 10
92.350137
 20
9.809364
 30
0.0
 10
92.506618
 20
10.501305
 30
0.0
 10
93.215251
 20
10.967394
 30
0.0
 10
93.781442
 20
11.060235
 30
0.0
 10
94.117798
 20
11.115390
 30
0.0
 11
95.494181
 21
9.300238
 31
0.0
 11
94.998495
 21
8.945811
 31
0.0
 11
94.436107
 21
8.730926
 31
0.0
 11
93.804156
 21
8.658623
 31
0.0
 11
93.046666
 21
8.795092
 31
0.0
 11
92.567782
 21
9.186345
 31
0.0
 11
92.400763
 21
9.805150
 31
0.0
 11
92.573396
 21
10.439099
 31
0.0
 11
93.127592
 21
10.863672
 31
0.0
 11
94.117798
 21
11.115390
 31
0.0
  0
LWPOLYLINE
  5
182
100
AcDbEntity
  8
Layer_1
 62
7
100
AcDbPolyline
 90
2
 70
0
 10
95.943973
 20
11.511714
 30
0.0
 10
95.943973
 20
10.228484
 30
0.0
  0
SPLINE
  5
183
100
AcDbEntity
  8
Layer_1
 62
7
100
AcDbSpline
 70
0
 71
3
 72
10
 73
6
 74
4
 40
0.000000
 40
0.000000
 40
0.000000
 40
0.000000
 40
0.937595
 40
1.475026
 40
1.875790
 40
1.875790
 40
1.875790
 40
1.875790
 10
94.117798
 20
11.115390
 30
0.0
 10
94.426990
 20
11.158010
 30
0.0
 10
94.913411
 20
11.225060
 30
0.0
 10
95.532262
 20
11.336319
 30
0.0
 10
95.820744
 20
11.459217
 30
0.0
 10
95.943973
 20
11.511714
 30
0.0
 11
94.117798
 21
11.115390
 31
0.0
 11
95.045459
 21
11.251508
 31
0.0
 11
95.570446
 21
11.366493
 31
0.0
 11
95.943973
 21
11.511714
 31
0.0
  0
LWPOLYLINE
  5
184
100
AcDbEntity
  8
Layer_1
 62
7
100
AcDbPolyline
 90
2
 70
0
 10
95.943973
 20
11.511714
 30
0.0
 10
95.943973
 20
11.511714
 30
0.0
  0
ENDSEC
  0
SECTION
  2
OBJECTS
  0
DICTIONARY
  5
C
330
0
100
AcDbDictionary
  3
ACAD_GROUP
350
D
  3
ACAD_MLINESTYLE
350
17
  0
DICTIONARY
  5
D
330
C
100
AcDbDictionary
  0
DICTIONARY
  5
1A
330
C
100
AcDbDictionary
  0
DICTIONARY
  5
17
330
C
100
AcDbDictionary
  3
STANDARD
350
18
  0
DICTIONARY
  5
19
330
C
100
AcDbDictionary
  0
ENDSEC
  0
EOF
