<?xml version="1.0" encoding="UTF-8" standalone="no"?>
<!-- Created with Inkscape (http://www.inkscape.org/) -->

<svg
   xmlns:dc="http://purl.org/dc/elements/1.1/"
   xmlns:cc="http://creativecommons.org/ns#"
   xmlns:rdf="http://www.w3.org/1999/02/22-rdf-syntax-ns#"
   xmlns:svg="http://www.w3.org/2000/svg"
   xmlns="http://www.w3.org/2000/svg"
   xmlns:sodipodi="http://sodipodi.sourceforge.net/DTD/sodipodi-0.dtd"
   xmlns:inkscape="http://www.inkscape.org/namespaces/inkscape"
   width="126.02998mm"
   height="51.363476mm"
   viewBox="0 0 446.56293 181.99658"
   id="svg7501"
   version="1.1"
   inkscape:version="0.91 r13725"
   sodipodi:docname="LedAlert_Logotype_Black_and_White.svg"
   inkscape:export-filename="LedAlert_Logotype_Black_and_White.png"
   inkscape:export-xdpi="164.2"
   inkscape:export-ydpi="164.2">
  <defs
     id="defs7503" />
  <sodipodi:namedview
     id="base"
     pagecolor="#ffffff"
     bordercolor="#666666"
     borderopacity="1.0"
     inkscape:pageopacity="0.0"
     inkscape:pageshadow="2"
     inkscape:zoom="2.8"
     inkscape:cx="204.44183"
     inkscape:cy="91.844974"
     inkscape:document-units="mm"
     inkscape:current-layer="layer1"
     showgrid="false"
     fit-margin-top="6"
     fit-margin-left="6"
     fit-margin-right="6"
     fit-margin-bottom="5"
     inkscape:window-width="1920"
     inkscape:window-height="1027"
     inkscape:window-x="1672"
     inkscape:window-y="1192"
     inkscape:window-maximized="1" />
  <metadata
     id="metadata7506">
    <rdf:RDF>
      <cc:Work
         rdf:about="">
        <dc:format>image/svg+xml</dc:format>
        <dc:type
           rdf:resource="http://purl.org/dc/dcmitype/StillImage" />
        <dc:title></dc:title>
      </cc:Work>
    </rdf:RDF>
  </metadata>
  <g
     inkscape:label="Layer 1"
     inkscape:groupmode="layer"
     id="layer1"
     transform="translate(-204.28613,-229.57351)">
    <path
       style="font-style:normal;font-variant:normal;font-weight:bold;font-stretch:normal;font-size:medium;line-height:125%;font-family:Helvetica;-inkscape-font-specification:'Helvetica Bold';letter-spacing:0px;word-spacing:0px;fill:#000000;fill-opacity:1;stroke:none;stroke-width:1px;stroke-linecap:butt;stroke-linejoin:miter;stroke-opacity:1"
       d="M 225.4043 21.259766 L 205.93359 69.339844 L 213.34766 69.339844 L 219.11328 54.896484 L 240.15625 54.896484 L 245.77148 69.339844 L 253.55859 69.339844 L 234.38867 21.259766 L 225.4043 21.259766 z M 256.88086 21.259766 L 256.88086 69.339844 L 290.80273 69.339844 L 290.80273 63.931641 L 263.8457 63.931641 L 263.8457 21.259766 L 256.88086 21.259766 z M 294.51367 21.259766 L 294.51367 69.339844 L 333.67578 69.339844 L 333.67578 63.931641 L 301.47656 63.931641 L 301.47656 47.443359 L 331.20508 47.443359 L 331.20508 42.035156 L 301.47656 42.035156 L 301.47656 26.667969 L 332.32812 26.667969 L 332.32812 21.259766 L 294.51367 21.259766 z M 337.43164 21.259766 L 337.43164 69.339844 L 344.39648 69.339844 L 344.39648 48.630859 L 362.36719 48.630859 C 368.58245 48.630859 371.35352 51.269228 371.35352 57.205078 L 371.2793 61.492188 C 371.2793 64.460117 371.8781 67.361224 372.85156 69.339844 L 381.3125 69.339844 L 381.3125 67.824219 C 378.69162 66.241319 378.16734 64.526436 378.01758 58.128906 C 377.94268 50.214417 376.5212 47.840096 370.60547 45.597656 C 376.74585 42.893546 379.2168 39.661223 379.2168 34.121094 C 379.2168 25.810884 373.37489 21.259766 362.5918 21.259766 L 337.43164 21.259766 z M 381.35547 21.259766 L 381.35547 26.667969 L 399.32617 26.667969 L 399.32617 69.339844 L 406.29102 69.339844 L 406.29102 26.667969 L 424.1875 26.667969 L 424.1875 21.259766 L 381.35547 21.259766 z M 29.167969 21.40625 L 29.167969 87.449219 L 74.291016 87.449219 L 74.291016 76.125 L 42.732422 76.125 L 42.732422 21.40625 L 29.167969 21.40625 z M 84.359375 21.40625 L 84.359375 87.449219 L 133.64062 87.449219 L 133.64062 76.125 L 97.921875 76.125 L 97.921875 59.001953 L 129.48242 59.001953 L 129.48242 47.677734 L 97.921875 47.677734 L 97.921875 32.730469 L 132.01367 32.730469 L 132.01367 21.40625 L 84.359375 21.40625 z M 144.58008 21.40625 L 144.58008 87.449219 L 170.35156 87.449219 C 180.38903 87.449219 186.71884 85.092987 191.24023 79.748047 C 196.3946 73.587787 199.19922 64.710322 199.19922 54.382812 C 199.19922 44.145893 196.3946 35.268438 191.24023 29.017578 C 186.71884 23.672648 180.47946 21.40625 170.35156 21.40625 L 144.58008 21.40625 z M 344.39648 26.667969 L 361.24414 26.667969 C 365.13804 26.667969 367.38512 27.196545 369.10742 28.515625 C 370.97949 29.900655 371.95313 32.07609 371.95312 34.912109 C 371.95312 40.650109 368.65752 43.222656 361.24414 43.222656 L 344.39648 43.222656 L 344.39648 26.667969 z M 229.82227 27.855469 L 238.20898 49.751953 L 220.83594 49.751953 L 229.82227 27.855469 z M 158.14453 32.730469 L 170.35156 32.730469 C 180.56989 32.730469 185.63477 39.887317 185.63477 54.472656 C 185.63477 68.967395 180.56989 76.125 170.35156 76.125 L 158.14453 76.125 L 158.14453 32.730469 z M 226.06641 62.132812 L 219.91602 64.265625 L 222.07617 65.722656 L 217.70312 72.195312 L 219.86719 73.654297 L 224.23438 67.177734 L 226.39258 68.634766 L 226.06641 62.132812 z M 233.7832 67.447266 L 227.63281 69.582031 L 229.79102 71.037109 L 225.41992 77.511719 L 227.58398 78.970703 L 231.95117 72.494141 L 234.10938 73.949219 L 233.7832 67.447266 z M 209.06055 81.945312 L 209.06055 101.49023 L 21.259766 101.49023 L 21.259766 105.83203 L 209.06055 105.83203 L 209.06055 125.375 L 241.63477 103.66016 L 209.06055 81.945312 z M 241.63477 103.66016 L 241.63477 125.375 L 245.97656 125.375 L 245.97656 105.83203 L 425.30273 105.83203 L 425.30273 101.49023 L 245.97656 101.49023 L 245.97656 81.945312 L 241.63477 81.945312 L 241.63477 103.66016 z M 31.027344 118.47461 L 31.027344 153.73633 L 35.517578 153.73633 L 35.517578 137.67578 L 53.623047 137.67578 L 53.623047 153.73633 L 58.113281 153.73633 L 58.113281 118.47461 L 53.623047 118.47461 L 53.623047 133.71094 L 35.517578 133.71094 L 35.517578 118.47461 L 31.027344 118.47461 z M 149.51172 118.47461 L 149.51172 153.73633 L 153.51953 153.73633 L 153.51953 143.86719 L 157.42969 139.99805 L 165.97656 153.73633 L 170.94922 153.73633 L 160.61719 137.14453 L 169.4043 128.38867 L 164.23828 128.38867 L 153.51953 139.12695 L 153.51953 118.47461 L 149.51172 118.47461 z M 86.449219 127.66406 C 82.731509 127.66406 79.786988 128.72881 78.048828 130.61523 C 76.890068 131.92122 76.407117 133.37149 76.310547 135.88672 L 80.365234 135.88672 C 80.703204 132.79106 82.538688 131.38867 86.304688 131.38867 C 89.974107 131.38867 91.953125 132.74361 91.953125 135.16211 L 91.953125 136.22461 C 91.904925 137.96592 91.037086 138.59592 87.753906 139.03125 C 82.056637 139.75679 81.187598 139.94933 79.642578 140.57812 C 76.697378 141.83574 75.199219 144.06046 75.199219 147.34961 C 75.199219 151.94474 78.386017 154.84766 83.503906 154.84766 C 86.690516 154.84766 89.25098 153.73501 92.099609 151.12305 C 92.389309 153.73501 93.64277 154.84766 96.25 154.84766 C 97.11907 154.84766 97.652006 154.75064 99.003906 154.41211 L 99.003906 151.36523 C 98.569366 151.46193 98.376176 151.46289 98.134766 151.46289 C 96.734586 151.46289 95.960938 150.73613 95.960938 149.47852 L 95.960938 134.58008 C 95.960938 130.08169 92.677588 127.66406 86.449219 127.66406 z M 124.05469 127.66406 C 117.19864 127.66406 112.80664 133.0817 112.80664 141.49805 C 112.80664 149.67255 117.15177 154.84766 124.00781 154.84766 C 130.04306 154.84766 133.85702 151.22063 134.33984 145.0293 L 130.2832 145.0293 C 129.60725 149.09236 127.53154 151.12305 124.10352 151.12305 C 119.66158 151.12305 117.00586 147.4959 117.00586 141.49805 C 117.00586 135.16161 119.61415 131.38867 124.00781 131.38867 C 127.38754 131.38867 129.51132 133.37134 129.99414 136.90234 L 134.05078 136.90234 C 133.85764 134.43548 133.32502 132.84022 132.35938 131.4375 C 130.62123 129.06738 127.57928 127.66406 124.05469 127.66406 z M 195.63281 127.66406 C 188.58364 127.66406 184.04492 133.03242 184.04492 141.40039 C 184.04492 149.76837 188.38942 154.84766 195.53516 154.84766 C 201.32899 154.84766 205.33763 151.55908 206.35156 146.04492 L 202.29492 146.04492 C 201.18444 149.38243 198.91653 151.12305 195.68164 151.12305 C 193.1227 151.12305 190.94956 149.96224 189.59766 147.83398 C 188.63202 146.38288 188.29438 144.93124 188.24609 142.41602 L 206.88281 142.41602 C 206.88281 138.54643 206.59338 136.22627 205.86914 134.33984 C 204.22756 130.18003 200.36445 127.66406 195.63281 127.66406 z M 234.20312 127.66406 C 231.59591 127.66406 229.61638 129.21154 227.29883 132.98438 L 227.29883 128.38867 L 223.58203 128.38867 L 223.58203 153.73633 L 227.63867 153.73633 L 227.63867 140.57812 C 227.68687 134.48353 230.19758 131.7748 235.75 131.91992 L 235.75 127.80859 C 235.07406 127.71189 234.68594 127.66406 234.20312 127.66406 z M 259.61133 127.66406 C 253.72094 127.66406 249.90625 130.71047 249.90625 135.40234 C 249.90625 139.36866 251.93491 141.25594 257.92188 142.70703 L 261.6875 143.62695 C 264.48786 144.30413 265.59766 145.31969 265.59766 147.10938 C 265.59766 149.52786 263.23162 151.12305 259.70703 151.12305 C 257.53434 151.12305 255.69948 150.49382 254.68555 149.42969 C 254.05789 148.70414 253.76875 147.97913 253.52734 146.18945 L 249.2793 146.18945 C 249.47243 152.0422 252.7545 154.84766 259.36914 154.84766 C 265.74236 154.84766 269.79883 151.70371 269.79883 146.81836 C 269.79883 143.04551 267.67367 140.96511 262.65234 139.75586 L 258.79102 138.83789 C 255.50784 138.06397 254.10742 136.99867 254.10742 135.20898 C 254.10742 132.83886 256.18363 131.38867 259.4668 131.38867 C 262.70169 131.38867 264.4386 132.79084 264.53516 135.45117 L 268.78516 135.45117 C 268.73696 130.46909 265.45346 127.66406 259.61133 127.66406 z M 297.42773 127.66406 C 293.9997 127.66406 291.24822 129.21201 289.36523 132.21094 L 289.36523 128.38867 L 285.64648 128.38867 L 285.64648 164.2793 L 289.70312 164.2793 L 289.70312 151.07422 C 291.82752 153.68619 294.19339 154.84766 297.47656 154.84766 C 304.04291 154.84766 308.29102 149.57581 308.29102 141.49805 C 308.29102 132.98496 304.13892 127.66406 297.42773 127.66406 z M 334.45312 127.66406 C 330.73542 127.66406 327.79088 128.72881 326.05273 130.61523 C 324.89396 131.92122 324.41101 133.37149 324.31445 135.88672 L 328.37109 135.88672 C 328.70906 132.79106 330.5426 131.38867 334.30859 131.38867 C 337.97803 131.38867 339.95898 132.74361 339.95898 135.16211 L 339.95898 136.22461 C 339.91068 137.96592 339.04099 138.59592 335.75781 139.03125 C 330.06054 139.75679 329.1915 139.94933 327.64648 140.57812 C 324.70127 141.83574 323.20508 144.06046 323.20508 147.34961 C 323.20508 151.94474 326.39188 154.84766 331.50977 154.84766 C 334.69638 154.84766 337.25488 153.73501 340.10352 151.12305 C 340.39321 153.73501 341.64863 154.84766 344.25586 154.84766 C 345.12493 154.84766 345.65592 154.75064 347.00781 154.41211 L 347.00781 151.36523 C 346.57327 151.46193 346.38008 151.46289 346.13867 151.46289 C 344.73849 151.46289 343.96484 150.73613 343.96484 149.47852 L 343.96484 134.58008 C 343.96484 130.08169 340.6815 127.66406 334.45312 127.66406 z M 372.06055 127.66406 C 365.20451 127.66406 360.81055 133.0817 360.81055 141.49805 C 360.81055 149.67255 365.15568 154.84766 372.01172 154.84766 C 378.04697 154.84766 381.86093 151.22063 382.34375 145.0293 L 378.28906 145.0293 C 377.61311 149.09236 375.53544 151.12305 372.10742 151.12305 C 367.66548 151.12305 365.01172 147.4959 365.01172 141.49805 C 365.01172 135.16161 367.61806 131.38867 372.01172 131.38867 C 375.39146 131.38867 377.51523 133.37134 377.99805 136.90234 L 382.05469 136.90234 C 381.86156 134.43548 381.33087 132.84022 380.36523 131.4375 C 378.62708 129.06738 375.58514 127.66406 372.06055 127.66406 z M 408.23438 127.66406 C 401.18521 127.66406 396.64648 133.03242 396.64648 141.40039 C 396.64648 149.76837 400.99294 154.84766 408.13867 154.84766 C 413.9325 154.84766 417.9392 151.55908 418.95312 146.04492 L 414.89844 146.04492 C 413.78795 149.38243 411.51809 151.12305 408.2832 151.12305 C 405.72424 151.12305 403.55111 149.96224 402.19922 147.83398 C 401.23358 146.38288 400.89594 144.93124 400.84766 142.41602 L 419.48438 142.41602 C 419.48438 138.54643 419.19492 136.22627 418.4707 134.33984 C 416.82911 130.18003 412.96601 127.66406 408.23438 127.66406 z M 195.58398 131.38867 C 199.68794 131.38867 202.53711 134.58019 202.53711 139.12695 L 188.3418 139.12695 C 188.67977 134.43508 191.52829 131.38867 195.58398 131.38867 z M 408.18555 131.38867 C 412.28952 131.38867 415.13867 134.58019 415.13867 139.12695 L 400.94336 139.12695 C 401.28133 134.43508 404.12986 131.38867 408.18555 131.38867 z M 296.75195 131.4375 C 301.19389 131.4375 304.08984 135.35416 304.08984 141.40039 C 304.08984 147.15639 301.14562 151.07422 296.75195 151.07422 C 292.45486 151.07422 289.70313 147.20535 289.70312 141.25586 C 289.70312 135.30637 292.45486 131.4375 296.75195 131.4375 z M 91.953125 141.20703 L 91.953125 145.75391 C 91.953125 147.10827 91.568378 147.93047 90.361328 149.04297 C 88.719738 150.54244 86.738867 151.31641 84.373047 151.31641 C 81.234727 151.31641 79.400391 149.81751 79.400391 147.25391 C 79.400391 144.59356 81.138995 143.24014 85.484375 142.61133 C 89.781475 142.0309 90.601225 141.83584 91.953125 141.20703 z M 339.95898 141.20703 L 339.95898 145.75391 C 339.95898 147.10827 339.57228 147.93047 338.36523 149.04297 C 336.72365 150.54244 334.74277 151.31641 332.37695 151.31641 C 329.23862 151.31641 327.4043 149.81751 327.4043 147.25391 C 327.4043 144.59356 329.14291 143.24014 333.48828 142.61133 C 337.78538 142.0309 338.60708 141.83584 339.95898 141.20703 z "
       transform="translate(204.28611,229.57351)"
       id="path6506" />
  </g>
</svg>
